<svg xmlns="http://www.w3.org/2000/svg" width="40" height="40" fill="none" viewBox="0 0 40 40"><path stroke="#000" stroke-width="2.16667" d="M7.219 7.706v28.352c0 .184.149.333.333.333h24.889c.184 0 .333-.149.333-.333V3.94a.333.333 0 0 0-.333-.333h-9.138c-.1 0-.194.045-.257.122l-2.887 3.523a.333.333 0 0 1-.258.122H7.552a.333.333 0 0 0-.333.333Z"/><path fill="#000" d="M11.458 24.424a.333.333 0 0 1-.333-.333v-6.333c0-.184.15-.334.333-.334h2.917c.68 0 1.233.224 1.66.67.427.447.64 1.04.64 1.78s-.213 1.334-.64 1.78c-.427.447-.98.67-1.66.67h-1.317a.333.333 0 0 0-.333.334v1.433c0 .184-.15.333-.333.333h-.934Zm1.267-3.983c0 .184.15.333.333.333h1.217c.233 0 .423-.08.57-.24.153-.166.23-.386.23-.66 0-.273-.077-.49-.23-.65a.724.724 0 0 0-.57-.25h-1.217a.333.333 0 0 0-.333.334v1.133ZM17.86 24.424a.333.333 0 0 1-.333-.333v-6.333c0-.184.149-.334.333-.334h2.267c.953 0 1.756.337 2.41 1.01.66.667.99 1.497.99 2.49 0 .994-.33 1.827-.99 2.5-.654.667-1.457 1-2.41 1H17.86Zm1.267-1.883c0 .184.149.333.333.333h.667c.506 0 .933-.183 1.28-.55.346-.366.52-.833.52-1.4 0-.566-.174-1.033-.52-1.4a1.692 1.692 0 0 0-1.28-.55h-.667a.333.333 0 0 0-.333.334v3.233ZM24.76 24.424a.333.333 0 0 1-.334-.333v-6.333c0-.184.15-.334.334-.334h4.083c.184 0 .333.15.333.334v.783c0 .184-.15.333-.333.333H26.36a.333.333 0 0 0-.334.334v.733c0 .184.15.333.334.333h2.233c.184 0 .333.15.333.334v.733c0 .184-.15.333-.333.333H26.36a.333.333 0 0 0-.334.334v2.083c0 .184-.15.333-.333.333h-.934Z"/></svg>