<svg xmlns="http://www.w3.org/2000/svg" width="24" height="24" fill="none" viewBox="0 0 24 24"><path fill="#20212B" d="M18.874 4.77a.833.833 0 0 0-.258-.176.88.88 0 0 0-.341-.064l-5.042-.03a.73.73 0 0 0-.57.261.832.832 0 0 0-.233.57c.001.241.084.44.247.594a.825.825 0 0 0 .58.232l4.219.012.026 4.233a.775.775 0 0 0 .232.565.812.812 0 0 0 .593.234.78.78 0 0 0 .577-.24.781.781 0 0 0 .24-.577l-.029-5.014a.88.88 0 0 0-.065-.341.833.833 0 0 0-.176-.259Z"/><path stroke="#20212B" stroke-linecap="round" stroke-linejoin="round" stroke-width="1.95" d="M11.27 7.427H6v10.146h10.067v-5.56"/><path stroke="#20212B" stroke-linecap="round" stroke-width="1.95" d="m17.21 6.175-5.92 5.92"/></svg>