<svg xmlns="http://www.w3.org/2000/svg" width="220" height="64" fill="none" viewBox="0 0 220 64"><g fill="#A7ADC8" clip-path="url(#a)"><path d="M74.61 20.52v19.63h-4.285V24.334h-7.857V40.15h-4.284V20.52H74.61ZM83.831 32.06h2.4v-3.488h-2.4c-1.173 0-1.856.764-1.856 1.756 0 .991.683 1.725 1.856 1.725m6.684-7.144v15.234H86.23v-4.601h-1.658l-2.97 4.6H77.03l3.543-5.418c-1.797-.734-2.883-2.255-2.883-4.48 0-3.163 2.31-5.327 5.942-5.327h6.882v-.008ZM117.366 40.15h-4.285v-8.347c0-2.255-.799-3.337-2.457-3.337s-2.627 1.317-2.685 3.163v8.521h-4.285v-8.347c0-2.255-.799-3.337-2.457-3.337s-2.627 1.317-2.686 3.163v8.521h-4.284V24.917h4.284v1.468c.888-1.203 2.231-1.907 3.969-1.907 2.37 0 3.969 1.112 4.798 2.989.859-1.846 2.399-2.99 4.63-2.99 3.624 0 5.458 2.551 5.458 6.532v9.141ZM128.985 20.55a2.532 2.532 0 0 1 2.546-2.55 2.526 2.526 0 0 1 2.538 2.55c0 1.438-1.145 2.604-2.538 2.604-1.394 0-2.546-1.174-2.546-2.604Zm-4.028 9.96h6.911c-.484-1.613-1.687-2.377-3.426-2.377s-2.942.878-3.485 2.376Zm-2.171-9.96a2.53 2.53 0 0 1 2.538-2.55 2.537 2.537 0 0 1 2.546 2.55c0 1.438-1.145 2.604-2.546 2.604-1.401 0-2.538-1.174-2.538-2.604Zm10.425 14.53 2.23 3.277c-1.313 1.316-3.624 2.224-6.427 2.224-5.194 0-8.51-3.042-8.51-8.051 0-4.654 3.367-8.052 7.938-8.052 4.937 0 8.136 3.867 7.6 9.141H124.73c.403 1.877 1.885 2.99 4.314 2.99 1.856 0 3.228-.674 4.167-1.522M150.121 32.47c0-2.43-1.482-4.042-3.713-4.042-2.23 0-3.682 1.203-3.741 3.02v1.907c0 1.96 1.482 3.276 3.741 3.276 2.26 0 3.713-1.672 3.713-4.162Zm-7.454-7.56v1.876c1.086-1.468 2.744-2.316 4.769-2.316 4.057 0 6.969 3.338 6.969 8 0 4.66-2.883 8.112-6.969 8.112-2.025 0-3.683-.848-4.769-2.346V46h-4.284V24.91h4.284ZM168.148 32.47c0-2.286-1.372-4.042-3.712-4.042s-3.742 1.756-3.742 4.041c0 2.286 1.372 4.162 3.742 4.162s3.712-1.786 3.712-4.162Zm-11.738 0c0-4.541 3.397-8 8.026-8s7.997 3.459 7.997 8c0 4.54-3.397 8.112-7.997 8.112s-8.026-3.489-8.026-8.113ZM173.574 24.917h4.284v4.245c0 1.551.712 2.225 2.37 2.225 1.086 0 1.797-.174 2.773-.674v-5.796h4.285V40.15h-4.285v-5.766c-1.086.56-2.23.847-3.859.847-3.741 0-5.568-2.164-5.568-5.592v-4.722ZM194.14 24.917v6.856l5.883-6.856h4.571l-6.17 7.143 6.456 8.09h-5.143l-5.597-7.007v7.007h-4.285V24.917h4.285Z"/><path d="M215.899 33.498v-1.907c0-1.907-1.511-3.163-3.741-3.163-2.231 0-3.713 1.612-3.713 4.041 0 2.43 1.482 4.162 3.713 4.162 2.23 0 3.653-1.256 3.741-3.133Zm4.285 6.652h-4.285v-1.907c-1.115 1.49-2.773 2.346-4.768 2.346-4.087 0-6.97-3.367-6.97-8.112s2.913-8 6.97-8c2.002 0 3.653.848 4.768 2.316v-1.876h4.285V40.15ZM36.006 14.788c-3.035 7.884-11.09 6.863-16.773 7.06l-1.38 5.376c7.006-5.714 16.276-.048 15.285 8.572-.666 5.806-4.806 9.603-9.186 10.695-4.771 1.188-10.055-.592-12.427-5.45-.25-.513-.689-1.544-.855-2.092l5.034-1.293c.087.289.24.57.399.824 3.367 5.433 10.195 2.714 10.962-2.92.785-5.732-7.261-8.788-10.927-2.088l-4.46-1.903-.079-.035 1.662-6.665a144.013 144.013 0 0 1 1.15-4.582c.14-.465.17-.618.332-1.04 2.86-7.51 8.511-8.27 13.537-8.27.201 0 .399 0 .596.005A21.845 21.845 0 0 0 22.391 10C10.354 10 .598 19.756.598 31.793c0 12.037 9.756 21.793 21.793 21.793 12.036 0 21.793-9.756 21.793-21.793 0-6.88-3.193-13.014-8.178-17.01"/><path d="M34.024 13.354c-.846 2.627-2.32 4.275-4.595 5.161-2.373.925-5.258.947-8.047.97-1.5.012-2.938.021-4.253.179 2.368-5.718 6.617-6.284 11.15-6.284.632 0 1.264.013 1.877.027.61.013 1.189.021 1.763.021.824 0 1.504-.026 2.105-.078"/></g><defs><clipPath id="a"><rect width="220" height="64" fill="#fff"/></clipPath></defs></svg>