<svg xmlns="http://www.w3.org/2000/svg" width="24" height="24" fill="none" viewBox="0 0 24 24"><path fill="#D6001C" d="M12 24c6.628 0 12-5.372 12-12S18.628 0 12 0 0 5.372 0 12s5.372 12 12 12Z"/><path fill="#FEFEFE" d="M6.731 6.712v4.082c.622-.741 1.367-1.114 2.23-1.114.446 0 .844.085 1.202.253.358.168.626.383.807.644.182.263.305.552.372.87.066.316.099.809.099 1.477v4.364H9.51v-3.93c0-.78-.035-1.275-.109-1.485a.958.958 0 0 0-.387-.5c-.186-.125-.418-.187-.697-.187-.32 0-.607.08-.857.239-.255.16-.438.399-.554.718-.118.32-.177.793-.175 1.418l-.002 3.727H4.801V6.712h1.93m7.604 0v4.082c.622-.741 1.366-1.114 2.23-1.114.443 0 .845.085 1.203.253.357.168.625.383.805.644.181.262.308.558.371.87.067.316.1.809.1 1.477v4.364h-1.93v-3.93c0-.78-.036-1.275-.11-1.485a.955.955 0 0 0-.388-.5c-.184-.125-.417-.187-.697-.187-.32 0-.606.08-.856.239-.252.16-.436.399-.553.718-.116.32-.175.793-.175 1.418v3.727h-1.929V6.712h1.929Z"/></svg>