<svg xmlns="http://www.w3.org/2000/svg" width="24" height="24" fill="none" viewBox="0 0 24 24"><path fill="#20212B" fill-rule="evenodd" d="M4.14 8.77a.65.65 0 0 1 .84.372c2.475 6.42 11.558 6.42 14.033 0a.65.65 0 0 1 1.213.468c-2.903 7.53-13.557 7.53-16.46 0a.65.65 0 0 1 .373-.84Z" clip-rule="evenodd"/><path fill="#20212B" fill-rule="evenodd" d="M11.348 18.486v-3.923h1.3v3.923a.65.65 0 0 1-1.3 0ZM5.614 17.07l1.962-3.398 1.126.65-1.962 3.397a.65.65 0 0 1-1.126-.65ZM2.081 13.877l2.774-2.774.92.92L3 14.797a.65.65 0 0 1-.919-.92ZM21.915 13.877l-2.774-2.774-.919.92 2.774 2.774a.65.65 0 0 0 .92-.92ZM18.382 17.07l-1.962-3.398-1.125.65 1.961 3.397a.65.65 0 0 0 1.126-.65Z" clip-rule="evenodd"/></svg>