<svg xmlns="http://www.w3.org/2000/svg" width="41" height="40" fill="none" viewBox="0 0 41 40"><path fill="#fff" d="m12.277 15.643.007-.004c.707-.317 1.41-.632 2.103-.947 6.12-2.649 12.262-5.251 18.468-7.675 1.207-.413 3.376-.817 3.59 1.02-.084 1.837-.347 3.666-.61 5.493l-.002.01c-.109.755-.217 1.51-.313 2.264-.707 4.811-1.506 9.61-2.306 14.405l-.433 2.604c-.324 1.886-2.627 2.863-4.1 1.656-.869-.603-1.74-1.204-2.611-1.806l-.047-.03c-2.661-1.838-5.324-3.678-7.947-5.561-1.144-1.195-.083-2.91.94-3.762 1.172-1.186 2.373-2.3 3.57-3.41l.005-.005c1.778-1.65 3.547-3.29 5.198-5.143.698-1.73-1.19-.475-2.029.083l-.155.103c-.985.697-1.964 1.405-2.944 2.112-2.99 2.16-5.982 4.32-9.153 6.19-1.93 1.09-4.146.365-6.134-.284l-.339-.111-.332-.106a41.13 41.13 0 0 0-.83-.338c-1.787-.715-3.692-1.477-2.259-2.555 2.744-1.55 5.744-2.895 8.663-4.203Z"/></svg>