<svg xmlns="http://www.w3.org/2000/svg" width="125" height="64" fill="none" viewBox="0 0 125 64"><path fill="#A7ADC8" d="M41.563 34.092h6.855v2.237h-3.264v15.809h-3.591V34.092ZM52.484 45.352l.605-9.029h.206l.605 9.03h-1.416Zm-3.98 6.78h3.519l.333-4.791h1.697l.332 4.79h3.512l-1.871-18.04h-5.65l-1.872 18.04ZM63.039 45.814v3.4a.56.56 0 0 0 .562.608.61.61 0 0 0 .57-.609v-4.22c0-.565-.102-1.215-1.44-1.215h-1.46V41.85h1.513c1.023 0 1.387-.237 1.387-1.344V36.92a.61.61 0 0 0-.57-.608.548.548 0 0 0-.536.377c-.026.074-.035.153-.026.231v2.943h-3.593v-2.554c0-1.258.152-3.216 2.666-3.216h2.98c2.519 0 2.677 1.958 2.677 3.216v2.888c0 1.958-1.363 2.5-2.423 2.432v.183c2.423-.055 2.423 1.824 2.423 2.432v3.648c0 1.265-.158 3.223-2.677 3.223h-2.98c-2.514 0-2.666-1.958-2.666-3.223v-3.077h3.593ZM70.137 34.092h8.323v18.04h-3.598V36.323H73.73v15.809h-3.593v-18.04ZM84.414 44.015v-7.686h.466c.382 0 .667.335.667.9v5.88c0 .571-.285.906-.667.906h-.466Zm-3.593 8.117h3.593v-6.135h2.06c2.513 0 2.664-1.958 2.664-3.223v-5.472c0-1.258-.15-3.216-2.665-3.216h-5.652v18.046ZM96.231 49.213a.612.612 0 0 1-.564.608.564.564 0 0 1-.569-.608V36.92a.565.565 0 0 1 .15-.432.557.557 0 0 1 .42-.176.558.558 0 0 1 .412.182.56.56 0 0 1 .151.426v12.294Zm-4.724-.304c0 1.265.15 3.223 2.671 3.223h2.974c2.52 0 2.67-1.958 2.67-3.223v-11.6c0-1.26-.15-3.217-2.67-3.217h-2.974c-2.52 0-2.67 1.958-2.67 3.216V48.91ZM111.533 34.092h4.67v18.04h-3.591V40.816h-.128l-1.853 11.316h-2.87l-1.854-11.316h-.127v11.316h-3.591v-18.04h4.67l2.337 12.677 2.337-12.677ZM36.903 9.412C35.783 4.578 33.04.644 32.663 0a32.692 32.692 0 0 0-3.924 8.233 29.917 29.917 0 0 0-.976 11.862 32.864 32.864 0 0 0 2 7.607 26.182 26.182 0 0 0 2.92 5.253 28.511 28.511 0 0 0 4.844-12.337c.455-3.393.472-6.366-.624-11.206Zm-4.24 22.339a13.166 13.166 0 0 1-1.46-5.977c0-2.066.508-4.1 1.48-5.922.875 1.77 1.36 3.71 1.416 5.685a12.802 12.802 0 0 1-1.435 6.214Zm3.92-14.118a25.946 25.946 0 0 1-.546 4.955c.07-2.364-.133-4.73-.606-7.047a30.315 30.315 0 0 0-2.792-7.637 30.584 30.584 0 0 0-2.755 7.588 35.77 35.77 0 0 0-.643 7.127 35.73 35.73 0 0 1-.459-6.908c.115-2.116.45-4.215.999-6.262a33.592 33.592 0 0 1 2.858-6.883A30.93 30.93 0 0 1 35.54 9.35a30.368 30.368 0 0 1 1.042 8.282Z"/><path fill="#A7ADC8" d="M26.159 34.086v5.636a5.043 5.043 0 0 1 7.044.098 5.082 5.082 0 0 1 .097 7.07 10.069 10.069 0 0 1-6.643 2.915 10.067 10.067 0 0 1-6.875-2.309 10.163 10.163 0 0 1-1.962-13.44 9.806 9.806 0 0 1 1.21-1.509 10.064 10.064 0 0 1 3.27-2.197 10.02 10.02 0 0 1 3.859-.77V16.058a17.9 17.9 0 0 0-8.53 2.164 18.003 18.003 0 0 0-6.483 5.973 18.095 18.095 0 0 0-1.46 17.065 18.02 18.02 0 0 0 5.372 6.995 17.923 17.923 0 0 0 8.038 3.594c2.934.51 5.949.28 8.773-.67a17.957 17.957 0 0 0 7.404-4.775V34.085H26.159Z"/></svg>