<svg xmlns="http://www.w3.org/2000/svg" width="40" height="55" fill="none" viewBox="0 0 40 55"><path fill="#20212B" d="M0 2.5A2.5 2.5 0 0 1 2.5 0h35A2.5 2.5 0 0 1 40 2.5v35a2.5 2.5 0 0 1-2.5 2.5h-35A2.5 2.5 0 0 1 0 37.5v-35Z"/><path fill="#fff" d="M14.33 11.288H7.5V7.5H20l-2.457 2.457c-1.045 1.045-1.735 1.331-3.213 1.331Zm1.363 3.972 7.76-7.76h-1.31l-3.529 3.528c-1.343 1.344-2.384 1.775-4.285 1.775H7.5v3.788h4.979c1.478 0 2.169-.286 3.214-1.33ZM11.99 25.866 30.357 7.5h-1.31L14.914 21.634c-1.344 1.344-2.384 1.775-4.285 1.775H7.5v3.788h1.277c1.479 0 2.17-.286 3.214-1.33Zm1.071 1.071c-1.343 1.344-2.384 1.775-4.285 1.775H7.5V32.5h25v-25L13.062 26.937Zm.78-6.374L26.905 7.5h-1.31l-8.831 8.831c-1.344 1.344-2.385 1.775-4.285 1.775H7.5v3.788h3.128c1.478 0 2.169-.286 3.214-1.33Z"/><circle cx="20" cy="50" r="5" fill="#20212B"/></svg>