<svg xmlns="http://www.w3.org/2000/svg" width="24" height="24" fill="none" viewBox="0 0 24 24"><path fill="#20212B" fill-rule="evenodd" d="M18.592 12.242c-2.573 5.593-10.611 5.593-13.184 0C7.95 6.6 16.05 6.6 18.592 12.242Zm1.408.005c-2.822 7.32-13.178 7.32-16 0 2.78-7.381 13.22-7.381 16 0Z" clip-rule="evenodd"/><path fill="#20212B" fill-rule="evenodd" d="M12.001 13.007a1.007 1.007 0 1 0 0-2.014 1.007 1.007 0 0 0 0 2.014Zm0 1.3a2.307 2.307 0 1 0 0-4.614 2.307 2.307 0 0 0 0 4.614Z" clip-rule="evenodd"/></svg>