<svg xmlns="http://www.w3.org/2000/svg" width="24" height="24" fill="none" viewBox="0 0 24 24"><path fill="#EB5D0D" d="M6.556 3.637H0V0h12L9.642 2.359C8.638 3.362 7.975 3.637 6.556 3.637ZM7.865 7.45 15.315 0h-1.258L10.67 3.387c-1.29 1.29-2.29 1.704-4.114 1.704H0v3.636h4.78c1.419 0 2.082-.274 3.085-1.277ZM4.312 17.632 21.943 0h-1.257L7.116 13.569c-1.29 1.29-2.288 1.704-4.113 1.704H0v3.636h1.226c1.42 0 2.082-.274 3.086-1.277ZM5.34 18.66c-1.29 1.29-2.29 1.704-4.114 1.704H0V24h24V0L5.34 18.66Zm.748-6.12L18.628 0h-1.257L8.893 8.478c-1.29 1.29-2.289 1.704-4.113 1.704H0v3.636h3.003c1.42 0 2.082-.274 3.085-1.277Z"/></svg>