<svg xmlns="http://www.w3.org/2000/svg" width="32" height="32" fill="none" viewBox="0 0 32 32"><rect width="32" height="32" fill="#fff"/><path fill="#944B96" d="M8.742 4.849H0V0h16l-3.145 3.145C11.518 4.483 10.634 4.85 8.742 4.85Zm1.745 5.084L20.419 0h-1.676l-4.516 4.516c-1.72 1.72-3.053 2.272-5.485 2.272H0v4.848h6.373c1.892 0 2.776-.365 4.114-1.703ZM5.749 23.51 29.257 0h-1.676L9.489 18.092c-1.72 1.72-3.052 2.272-5.485 2.272H0v4.848h1.635c1.892 0 2.776-.366 4.114-1.703Zm1.37 1.37C5.4 26.6 4.069 27.153 1.636 27.153H0V32h32V0L7.12 24.88Zm.999-8.158L24.838 0h-1.676L11.858 11.304c-1.72 1.72-3.052 2.272-5.485 2.272H0v4.848h4.004c1.892 0 2.776-.365 4.114-1.703Z"/></svg>