<svg xmlns="http://www.w3.org/2000/svg" width="32" height="32" fill="none" viewBox="0 0 32 32"><path fill="#241C24" fill-rule="evenodd" d="M5.336 8.964H8.01v9.07l-2.675-2.36v-6.71ZM8.534 5.976h2.568V20.97l-2.568-2.468V5.976ZM11.628 2.988h2.621v14.207h-2.621V2.988ZM14.763 0h2.726v14.26h-2.726V0ZM17.857 2.83h2.622v14.365h-2.622V2.829ZM21.117 5.92h2.569v12.531l-2.569 2.52V5.92ZM24.159 8.911h2.623v6.555l-2.623 2.569V8.91Z" clip-rule="evenodd"/><path fill="#B3B31C" fill-rule="evenodd" d="M11.628 17.512h2.621v13.154h-2.621V17.512ZM14.763 14.681h2.568v15.986h-2.568V14.68ZM17.857 17.561h2.622v13.105h-2.622V17.56Z" clip-rule="evenodd"/></svg>