<svg xmlns="http://www.w3.org/2000/svg" width="162" height="52" fill="none" viewBox="0 0 162 52"><path fill="#20212B" d="M71.939 18.717h2.884a8.2 8.2 0 0 1-.891 2.256 9.287 9.287 0 0 1-1.6 2.098c-.664.664-1.495 1.197-2.491 1.6-.997.401-2.09.602-3.278.602-2.465 0-4.546-.883-6.241-2.648-1.696-1.766-2.544-4.03-2.544-6.792 0-2.763.848-5.027 2.544-6.792 1.695-1.766 3.776-2.649 6.24-2.649 2.169 0 3.978.63 5.43 1.888 1.468 1.241 2.412 2.754 2.831 4.537H71.94c-.455-1.224-1.163-2.16-2.124-2.806-.962-.664-2.046-.997-3.252-.997-1.748 0-3.19.621-4.327 1.862-1.136 1.242-1.705 2.894-1.705 4.957 0 2.063.569 3.715 1.705 4.956 1.136 1.241 2.579 1.862 4.327 1.862 1.398 0 2.552-.376 3.461-1.128.927-.769 1.565-1.704 1.915-2.806ZM84.67 25.011l-.263-1.442h-.13c-.263.332-.578.62-.945.865-.839.56-1.835.84-2.99.84-1.433 0-2.578-.377-3.435-1.128-.856-.752-1.285-1.731-1.285-2.937 0-1.347.446-2.404 1.338-3.174.909-.769 2.255-1.153 4.038-1.153h3.278v-.263c0-.856-.245-1.53-.734-2.019-.49-.49-1.163-.734-2.02-.734-.838 0-1.485.192-1.94.577-.454.367-.725.787-.813 1.259h-2.622c.07-1.154.585-2.116 1.547-2.885.962-.787 2.238-1.18 3.829-1.18 1.696 0 3.016.446 3.96 1.337.944.892 1.416 2.107 1.416 3.645v8.392h-2.23Zm-.394-5.507v-.524H81.13c-.961 0-1.687.192-2.176.576-.472.385-.708.892-.708 1.521 0 .612.2 1.093.603 1.443.402.35.988.524 1.757.524 1.189 0 2.098-.306 2.727-.918.63-.629.944-1.503.944-2.622ZM88.87 25.011V11.9h2.229l.262 1.18h.13c.018-.017.07-.079.158-.183.105-.105.166-.175.184-.21.035-.035.105-.096.21-.184.104-.105.192-.175.262-.21.07-.034.166-.078.288-.13.123-.07.245-.114.367-.132.14-.035.298-.061.473-.078a2.8 2.8 0 0 1 .55-.053h2.36v2.36h-2.098c-1.835 0-2.753.91-2.753 2.727v8.025h-2.623ZM99.486 20.789c.699.717 1.582 1.075 2.648 1.075 1.067 0 1.941-.358 2.623-1.075.699-.734 1.048-1.687 1.048-2.858 0-1.172-.349-2.116-1.048-2.833-.682-.734-1.556-1.101-2.623-1.101-1.066 0-1.949.367-2.648 1.101-.682.717-1.023 1.661-1.023 2.833 0 1.17.34 2.124 1.023 2.858Zm-3.252 5.009h2.622c.07.647.402 1.197.997 1.652.612.472 1.416.708 2.412.708 1.049 0 1.897-.324 2.544-.97.664-.63.996-1.443.996-2.44v-2.097h-.131a8.409 8.409 0 0 1-.786.708c-.228.175-.638.367-1.233.577-.594.192-1.276.288-2.045.288-1.661 0-3.042-.577-4.144-1.73-1.084-1.172-1.626-2.693-1.626-4.563 0-1.871.542-3.383 1.626-4.537 1.102-1.171 2.483-1.757 4.144-1.757 1.748 0 3.103.568 4.064 1.704h.131l.263-1.442h2.36v12.85c0 1.748-.542 3.147-1.626 4.196-1.084 1.049-2.596 1.573-4.537 1.573-1.014 0-1.923-.157-2.727-.472-.804-.315-1.434-.726-1.888-1.232a6.282 6.282 0 0 1-1.023-1.521 4.414 4.414 0 0 1-.393-1.495ZM113.593 21.707c.752.804 1.696 1.206 2.832 1.206s2.072-.402 2.806-1.206c.752-.822 1.128-1.906 1.128-3.252 0-1.346-.376-2.421-1.128-3.225-.734-.822-1.67-1.233-2.806-1.233-1.136 0-2.08.41-2.832 1.232-.734.805-1.101 1.88-1.101 3.226s.367 2.43 1.101 3.252Zm7.526 1.678c-1.224 1.259-2.788 1.888-4.694 1.888-1.905 0-3.479-.63-4.72-1.888-1.224-1.259-1.836-2.902-1.836-4.93 0-2.028.612-3.671 1.836-4.93 1.241-1.259 2.815-1.888 4.72-1.888 1.906 0 3.47.63 4.694 1.888 1.241 1.259 1.862 2.902 1.862 4.93 0 2.028-.621 3.671-1.862 4.93ZM58.302 46.203V33.09h2.623v13.112h-2.623Zm-.13-15.604v-2.753h2.884v2.753H58.17ZM63.035 46.203V33.09h2.36l.262 1.31h.131c.298-.296.621-.559.97-.786.84-.524 1.784-.787 2.833-.787 1.59 0 2.858.499 3.802 1.495.962.98 1.443 2.317 1.443 4.012v7.868h-2.623v-7.868c0-.856-.306-1.59-.918-2.202-.594-.63-1.337-.944-2.229-.944-.961 0-1.774.314-2.438.944-.647.611-.97 1.346-.97 2.202v7.868h-2.623ZM75.89 42.269h2.622c0 .472.262.918.787 1.337.524.42 1.267.63 2.229.63.909 0 1.59-.166 2.045-.498.472-.35.708-.752.708-1.207 0-.472-.148-.839-.445-1.101-.298-.28-.805-.48-1.521-.603l-2.36-.394c-2.535-.42-3.803-1.687-3.803-3.802 0-1.102.446-2.01 1.337-2.727.91-.717 2.212-1.076 3.908-1.076.891 0 1.696.14 2.412.42.735.28 1.303.638 1.705 1.075.42.437.734.883.944 1.338.21.437.315.847.315 1.232H84.15c0-.454-.236-.874-.708-1.259-.472-.384-1.154-.577-2.045-.577-.874 0-1.53.158-1.967.472-.437.298-.656.665-.656 1.102 0 .787.656 1.311 1.967 1.573l2.36.394c2.535.42 3.803 1.73 3.803 3.933 0 1.12-.463 2.055-1.39 2.806-.91.752-2.238 1.128-3.986 1.128-.98 0-1.862-.149-2.649-.446-.769-.297-1.363-.673-1.783-1.128a5.906 5.906 0 0 1-.918-1.337c-.192-.455-.288-.883-.288-1.285ZM88.224 40.958V33.09h2.623v7.867c0 .857.297 1.6.891 2.229.612.612 1.364.918 2.255.918.962 0 1.766-.306 2.413-.918.664-.63.997-1.372.997-2.23v-7.866h2.622v13.112h-2.36l-.262-1.312h-.132c-.297.298-.62.56-.97.787-.839.525-1.783.787-2.832.787-1.59 0-2.867-.49-3.829-1.469-.944-.996-1.416-2.342-1.416-4.038ZM102.125 46.203V33.09h2.229l.262 1.18h.131a4.32 4.32 0 0 0 .158-.184c.105-.105.166-.175.183-.21.035-.035.105-.096.21-.183.105-.105.192-.175.262-.21s.166-.079.289-.131c.122-.07.244-.114.367-.131.14-.035.297-.061.472-.079a2.8 2.8 0 0 1 .551-.052h2.36v2.36h-2.098c-1.836 0-2.754.909-2.754 2.727v8.025h-2.622ZM118.274 46.203l-.262-1.443h-.131c-.262.333-.577.62-.944.866-.839.56-1.836.839-2.99.839-1.433 0-2.579-.376-3.435-1.128-.857-.752-1.285-1.73-1.285-2.937 0-1.346.446-2.404 1.337-3.173.909-.77 2.256-1.154 4.039-1.154h3.278v-.262c0-.857-.245-1.53-.735-2.02-.489-.489-1.162-.734-2.019-.734-.839 0-1.486.193-1.94.577-.455.367-.726.787-.813 1.26h-2.623c.07-1.155.586-2.116 1.548-2.886.961-.786 2.237-1.18 3.828-1.18 1.696 0 3.016.446 3.96 1.338.944.891 1.416 2.107 1.416 3.645v8.392h-2.229Zm-.393-5.507v-.525h-3.147c-.962 0-1.687.192-2.177.577-.472.385-.708.892-.708 1.521 0 .612.201 1.093.603 1.442.403.35.988.525 1.757.525 1.189 0 2.098-.306 2.728-.918.629-.63.944-1.503.944-2.622ZM122.474 46.203V33.09h2.36l.262 1.31h.132c.297-.296.62-.559.97-.786.839-.524 1.783-.787 2.832-.787 1.591 0 2.858.499 3.802 1.495.962.98 1.443 2.317 1.443 4.012v7.868h-2.623v-7.868c0-.856-.306-1.59-.917-2.202-.595-.63-1.338-.944-2.229-.944-.962 0-1.775.314-2.439.944-.647.611-.971 1.346-.971 2.202v7.868h-2.622ZM145.556 41.613h2.623a6.394 6.394 0 0 1-.604 1.6 6.654 6.654 0 0 1-1.101 1.547c-.455.507-1.058.918-1.809 1.233-.752.314-1.591.472-2.518.472-1.906 0-3.479-.63-4.72-1.888-1.224-1.259-1.836-2.902-1.836-4.93 0-2.028.612-3.672 1.836-4.93 1.241-1.26 2.814-1.889 4.72-1.889 1.748 0 3.121.499 4.117 1.495.997.98 1.635 2.054 1.915 3.226h-2.623c-.559-1.574-1.696-2.36-3.409-2.36-1.136 0-2.08.41-2.832 1.232-.734.804-1.101 1.88-1.101 3.226s.367 2.43 1.101 3.251c.752.805 1.696 1.207 2.832 1.207.944 0 1.705-.254 2.282-.76.576-.508.952-1.085 1.127-1.732ZM151.448 38.598h7.736c-.139-1.067-.55-1.923-1.232-2.57-.682-.647-1.539-.97-2.57-.97-1.084 0-1.958.323-2.622.97-.665.63-1.102 1.486-1.312 2.57Zm7.081 3.802h2.753c-.384 1.05-1.084 1.993-2.098 2.832-.996.822-2.264 1.233-3.802 1.233-1.906 0-3.479-.63-4.72-1.888-1.224-1.259-1.836-2.902-1.836-4.93 0-2.028.612-3.672 1.836-4.93 1.241-1.26 2.814-1.889 4.72-1.889 1.783 0 3.278.612 4.484 1.836 1.207 1.224 1.81 2.754 1.81 4.59 0 .157-.027.471-.079.943l-.052.367h-10.097c.14 1.12.569 2.011 1.285 2.675.717.665 1.6.997 2.649.997.734 0 1.381-.175 1.941-.525.576-.367.979-.804 1.206-1.31Z"/><path fill="#5F78DC" d="M16.5 12.665H5.699V6.672h19.77l-3.886 3.887c-1.653 1.652-2.745 2.105-5.083 2.105Zm2.156 6.282L30.928 6.673h-2.07l-5.581 5.58c-2.125 2.126-3.771 2.807-6.777 2.807H5.699v5.991h7.874c2.338 0 3.43-.452 5.083-2.104ZM12.802 35.72 41.849 6.673h-2.072L17.423 29.028c-2.125 2.125-3.771 2.807-6.777 2.807H5.699v5.99h2.02c2.338 0 3.43-.452 5.083-2.104Zm1.694 1.694c-2.125 2.125-3.771 2.807-6.777 2.807h-2.02v5.99h39.538V6.674l-30.741 30.74Zm1.233-10.081 20.66-20.66h-2.072L20.35 20.64c-2.125 2.125-3.771 2.807-6.777 2.807H5.699v5.99h4.947c2.338 0 3.43-.451 5.083-2.104Z"/></svg>