<svg xmlns="http://www.w3.org/2000/svg" width="132" height="52" fill="none" viewBox="0 0 132 52"><path fill="#20212B" d="M71.713 18.703h2.881a8.188 8.188 0 0 1-.89 2.253 9.28 9.28 0 0 1-1.598 2.095c-.664.664-1.493 1.196-2.489 1.598-.995.402-2.087.602-3.274.602-2.462 0-4.54-.881-6.234-2.645s-2.54-4.025-2.54-6.784c0-2.76.846-5.02 2.54-6.784 1.694-1.764 3.772-2.646 6.234-2.646 2.165 0 3.973.629 5.422 1.886 1.467 1.24 2.41 2.75 2.83 4.531h-2.882c-.454-1.222-1.161-2.156-2.122-2.802-.96-.664-2.043-.996-3.248-.996-1.746 0-3.187.62-4.322 1.86-1.135 1.24-1.703 2.89-1.703 4.95 0 2.061.568 3.712 1.703 4.951 1.135 1.24 2.576 1.86 4.322 1.86 1.397 0 2.55-.375 3.458-1.126.925-.768 1.563-1.703 1.912-2.803ZM84.429 24.99l-.262-1.441h-.13a4.06 4.06 0 0 1-.944.864c-.838.56-1.834.838-2.986.838-1.432 0-2.576-.375-3.431-1.126-.856-.75-1.284-1.729-1.284-2.933 0-1.345.446-2.402 1.336-3.17.908-.768 2.253-1.152 4.034-1.152h3.274v-.262c0-.856-.244-1.528-.733-2.017-.49-.49-1.162-.734-2.017-.734-.838 0-1.485.192-1.939.577-.454.366-.724.785-.812 1.257h-2.619c.07-1.153.585-2.113 1.546-2.882.96-.785 2.235-1.178 3.824-1.178 1.694 0 3.012.445 3.955 1.336.943.89 1.414 2.104 1.414 3.64v8.383H84.43Zm-.393-5.501v-.524h-3.143c-.96 0-1.685.192-2.174.576-.472.384-.707.89-.707 1.52 0 .61.2 1.09.602 1.44.402.35.987.524 1.755.524 1.187 0 2.095-.305 2.724-.917.629-.628.943-1.502.943-2.62ZM88.624 24.99V11.893h2.227l.261 1.178h.131c.018-.017.07-.078.158-.183.104-.105.166-.175.183-.21.035-.034.105-.096.21-.183.104-.105.192-.174.261-.21.07-.034.166-.078.289-.13.122-.07.244-.114.366-.131a3.32 3.32 0 0 1 .472-.079c.174-.035.358-.052.55-.052h2.357v2.357h-2.095c-1.834 0-2.75.908-2.75 2.724v8.016h-2.62ZM99.228 20.772c.698.716 1.58 1.074 2.645 1.074 1.066 0 1.939-.358 2.62-1.074.698-.733 1.047-1.685 1.047-2.855s-.349-2.113-1.047-2.829c-.681-.733-1.554-1.1-2.62-1.1-1.065 0-1.947.367-2.645 1.1-.681.716-1.022 1.66-1.022 2.83 0 1.17.34 2.121 1.022 2.854Zm-3.248 5.003h2.62c.069.647.4 1.197.995 1.65.611.472 1.414.708 2.409.708 1.048 0 1.895-.323 2.541-.97.664-.628.995-1.44.995-2.435v-2.096h-.131a8.276 8.276 0 0 1-.785.707c-.227.175-.638.367-1.231.577-.594.192-1.275.288-2.044.288-1.659 0-3.038-.576-4.138-1.729-1.083-1.17-1.624-2.69-1.624-4.558 0-1.868.541-3.379 1.624-4.531 1.1-1.17 2.48-1.755 4.138-1.755 1.747 0 3.1.567 4.06 1.702h.131l.262-1.44h2.358v12.835c0 1.746-.542 3.143-1.624 4.19-1.083 1.048-2.593 1.572-4.532 1.572-1.013 0-1.921-.157-2.724-.471-.803-.314-1.432-.725-1.886-1.231a6.273 6.273 0 0 1-1.021-1.52 4.41 4.41 0 0 1-.393-1.493ZM113.319 21.69c.751.802 1.694 1.204 2.829 1.204 1.135 0 2.069-.401 2.803-1.205.75-.82 1.126-1.903 1.126-3.248 0-1.344-.376-2.418-1.126-3.222-.734-.82-1.668-1.23-2.803-1.23s-2.078.41-2.829 1.23c-.733.804-1.1 1.878-1.1 3.222 0 1.345.367 2.428 1.1 3.248Zm7.518 1.676c-1.223 1.257-2.786 1.886-4.689 1.886-1.904 0-3.475-.63-4.715-1.886-1.222-1.258-1.834-2.9-1.834-4.925s.612-3.667 1.834-4.924c1.24-1.258 2.811-1.886 4.715-1.886 1.903 0 3.466.628 4.689 1.886 1.239 1.257 1.859 2.899 1.859 4.924 0 2.026-.62 3.667-1.859 4.925ZM59.14 46.157V35.548h-2.096V33.06h2.096v-2.358c0-.785.262-1.44.786-1.964.523-.524 1.178-.786 1.964-.786h2.62v2.357h-1.965c-.524 0-.786.262-.786.786v1.965h2.75v2.488h-2.75v10.609h-2.62ZM65.556 40.918V33.06h2.62v7.858c0 .856.296 1.598.89 2.226.611.612 1.362.917 2.253.917.96 0 1.763-.305 2.41-.917.663-.628.995-1.37.995-2.226V33.06h2.62v13.097h-2.358l-.262-1.31h-.131a5.96 5.96 0 0 1-.97.786c-.837.524-1.78.786-2.828.786-1.59 0-2.864-.49-3.824-1.467-.943-.996-1.415-2.34-1.415-4.034ZM81.405 38.56h7.728c-.14-1.065-.55-1.92-1.231-2.566-.682-.647-1.537-.97-2.567-.97-1.083 0-1.956.323-2.62.97-.663.628-1.1 1.484-1.31 2.566Zm7.073 3.799h2.75c-.384 1.047-1.083 1.99-2.095 2.828-.996.821-2.262 1.232-3.798 1.232-1.904 0-3.475-.629-4.715-1.886-1.223-1.258-1.834-2.9-1.834-4.925s.611-3.667 1.834-4.924c1.24-1.257 2.811-1.886 4.715-1.886 1.78 0 3.274.611 4.479 1.834 1.205 1.222 1.807 2.75 1.807 4.583 0 .157-.026.472-.079.943l-.052.367H81.405c.14 1.118.568 2.008 1.284 2.672.716.663 1.598.995 2.646.995.733 0 1.379-.174 1.938-.524.576-.366.978-.803 1.205-1.31ZM93.2 46.157V27.82h2.62v18.336H93.2Z"/><path fill="#FFA041" d="M16.7 12.593H5.902v-5.99h19.764l-3.884 3.886c-1.652 1.652-2.744 2.104-5.082 2.104Zm2.156 6.28 12.269-12.27h-2.07l-5.58 5.58c-2.124 2.124-3.77 2.806-6.775 2.806H5.902v5.989h7.872c2.337 0 3.43-.452 5.082-2.104Zm-5.853 16.77 29.04-29.04h-2.071l-22.349 22.35c-2.124 2.124-3.77 2.805-6.775 2.805H5.902v5.99h2.02c2.337 0 3.429-.452 5.081-2.104Zm1.694 1.694c-2.125 2.124-3.77 2.806-6.775 2.806h-2.02v5.99H45.43V6.602L14.697 37.338Zm1.232-10.078L36.584 6.604h-2.071L20.549 20.567c-2.124 2.125-3.77 2.806-6.775 2.806H5.902v5.99h4.946c2.337 0 3.43-.452 5.081-2.104Z"/></svg>