<svg xmlns="http://www.w3.org/2000/svg" width="32" height="32" fill="none" viewBox="0 0 32 32"><path fill="#006FAB" fill-rule="evenodd" d="M24.814 20.835v7.638A11.285 11.285 0 0 1 16.597 32C10.38 32 5.336 27.013 5.336 20.863c0-6.145 5.044-11.133 11.261-11.133v8.372a6.34 6.34 0 0 0-5.247 2.761 6.204 6.204 0 0 0 .777 7.912 6.352 6.352 0 0 0 4.47 1.83c1.61 0 3.222-.604 4.455-1.815a.052.052 0 0 1 .02-.015v-.005l.015-.012a3.104 3.104 0 0 0 0-4.426 3.186 3.186 0 0 0-4.474 0 .041.041 0 0 0-.016.012v-3.509h8.217ZM23.413 5.773c.68 2.965.667 4.788.372 6.868-.535 3.744-2.247 6.606-2.988 7.567-.51-.652-1.29-1.982-1.809-3.223 0 0-.983-2.362-1.243-4.663a18.165 18.165 0 0 1 .61-7.275C19.048 2.68 20.41.552 20.784 0c.234.392 1.947 2.807 2.629 5.773Zm-2.629 13.698c.348-.64.944-2.044.892-3.827-.074-1.819-.693-3.153-.88-3.472-.214.32-.931 1.847-.92 3.634.052 1.843.573 3.039.908 3.665Zm2.432-8.664a18.48 18.48 0 0 0-.645-5.06c-.559-2.007-1.64-3.915-1.8-4.162-.16.247-1.016 1.796-1.773 4.223-.2.727-.557 2.304-.62 3.842-.073 1.865.181 3.715.284 4.238 0-.618.012-2.674.397-4.373.385-1.7 1.117-3.659 1.712-4.653.644 1.047 1.453 3.308 1.735 4.664.288 1.357.437 3.09.376 4.32.171-.713.308-1.907.334-3.039Z" clip-rule="evenodd"/></svg>