<svg xmlns="http://www.w3.org/2000/svg" width="132" height="52" fill="none" viewBox="0 0 132 52"><path fill="#944B96" d="M16.3 11.455H5.525V5.477h19.725l-3.877 3.878c-1.649 1.649-2.738 2.1-5.071 2.1Zm2.152 6.268L30.697 5.477H28.63l-5.567 5.568c-2.12 2.12-3.763 2.8-6.762 2.8H5.524v5.978h7.856c2.333 0 3.423-.451 5.072-2.1Zm-5.84 16.736 28.98-28.982h-2.066L17.222 27.781c-2.12 2.12-3.763 2.8-6.762 2.8H5.524v5.978H7.54c2.332 0 3.422-.45 5.071-2.1Zm1.69 1.69c-2.12 2.12-3.763 2.801-6.762 2.801H5.524v5.977h39.45V5.477L14.3 36.15Zm1.23-10.058L36.145 5.477h-2.067L20.142 19.413c-2.12 2.12-3.762 2.8-6.761 2.8H5.523v5.978h4.936c2.333 0 3.422-.45 5.072-2.1Z"/><path fill="#20212B" d="M72.496 16.355h2.822a7.977 7.977 0 0 1-.872 2.2A9.06 9.06 0 0 1 72.88 20.6c-.65.648-1.463 1.168-2.438 1.56-.974.392-2.043.588-3.206.588-2.412 0-4.447-.86-6.106-2.583-1.66-1.722-2.489-3.93-2.489-6.625 0-2.694.83-4.902 2.489-6.624 1.659-1.723 3.694-2.584 6.106-2.584 2.12 0 3.89.614 5.31 1.842 1.437 1.21 2.36 2.686 2.77 4.425h-2.821c-.445-1.194-1.137-2.106-2.078-2.737-.94-.648-2.001-.972-3.181-.972-1.71 0-3.122.605-4.233 1.816-1.112 1.21-1.668 2.822-1.668 4.834 0 2.012.556 3.624 1.668 4.835 1.111 1.21 2.522 1.816 4.233 1.816 1.368 0 2.497-.367 3.386-1.1.906-.75 1.53-1.663 1.873-2.737ZM85.207 22.494l-.257-1.407h-.128a3.97 3.97 0 0 1-.924.844c-.82.546-1.795.818-2.924.818-1.403 0-2.523-.366-3.36-1.1-.839-.733-1.258-1.688-1.258-2.864 0-1.313.436-2.345 1.309-3.095.889-.75 2.206-1.125 3.95-1.125h3.207v-.256c0-.836-.24-1.492-.718-1.97-.48-.477-1.138-.716-1.976-.716-.82 0-1.453.188-1.898.563-.445.358-.71.767-.795 1.228h-2.566c.069-1.126.573-2.064 1.514-2.814.94-.767 2.189-1.151 3.745-1.151 1.66 0 2.95.435 3.874 1.304.924.87 1.386 2.055 1.386 3.556v8.185h-2.181Zm-.385-5.372v-.511h-3.079c-.94 0-1.65.187-2.129.562-.462.376-.693.87-.693 1.484 0 .597.197 1.066.59 1.407.394.34.967.511 1.72.511 1.163 0 2.052-.298 2.668-.895.615-.614.923-1.466.923-2.558ZM89.572 22.494V9.704h2.18l.257 1.152h.129c.017-.017.068-.077.154-.18a1.17 1.17 0 0 0 .18-.204c.033-.034.102-.094.205-.179a1.1 1.1 0 0 1 .256-.205c.068-.034.162-.076.282-.128.12-.068.24-.11.36-.127.136-.035.29-.06.461-.077a2.75 2.75 0 0 1 .539-.051h2.309v2.302H94.83c-1.795 0-2.693.886-2.693 2.66v7.827h-2.566ZM100.214 18.376c.684.699 1.548 1.048 2.591 1.048 1.044 0 1.899-.35 2.566-1.048.684-.717 1.026-1.646 1.026-2.788 0-1.143-.342-2.064-1.026-2.763-.667-.716-1.522-1.074-2.566-1.074-1.043 0-1.907.358-2.591 1.074-.667.7-1 1.62-1 2.763 0 1.142.333 2.071 1 2.788Zm-3.18 4.885h2.565c.068.63.393 1.168.974 1.611.599.46 1.386.691 2.361.691 1.026 0 1.855-.316 2.488-.946.65-.614.975-1.407.975-2.38v-2.045h-.128c-.291.29-.547.52-.77.69-.222.17-.624.358-1.206.563-.581.188-1.248.281-2.001.281-1.624 0-2.976-.562-4.053-1.688-1.06-1.142-1.59-2.626-1.59-4.45 0-1.825.53-3.3 1.59-4.425 1.077-1.143 2.429-1.714 4.053-1.714 1.711 0 3.036.554 3.977 1.662h.128l.257-1.406h2.309v12.533c0 1.705-.531 3.07-1.591 4.092-1.06 1.023-2.54 1.535-4.438 1.535-.992 0-1.882-.153-2.668-.46-.787-.307-1.403-.708-1.848-1.203a6.12 6.12 0 0 1-1-1.483 4.296 4.296 0 0 1-.385-1.458ZM114.272 19.27c.736.785 1.659 1.177 2.771 1.177 1.112 0 2.027-.392 2.745-1.176.735-.802 1.103-1.859 1.103-3.172 0-1.313-.368-2.361-1.103-3.146-.718-.801-1.633-1.202-2.745-1.202s-2.035.4-2.771 1.202c-.718.785-1.077 1.833-1.077 3.146s.359 2.37 1.077 3.172Zm7.363 1.638c-1.197 1.227-2.728 1.841-4.592 1.841-1.864 0-3.404-.613-4.618-1.841-1.197-1.228-1.796-2.83-1.796-4.809 0-1.978.599-3.58 1.796-4.809 1.214-1.227 2.754-1.841 4.618-1.841 1.864 0 3.395.614 4.592 1.841 1.214 1.228 1.821 2.831 1.821 4.81 0 1.977-.607 3.58-1.821 4.808ZM56.333 49.99v-2.302h2.053c.513 0 .77-.299.77-.895V32.085h2.565v15.22c0 .835-.248 1.491-.744 1.969-.479.477-1.172.716-2.078.716h-2.566Zm2.694-20.335V26.97h2.822v2.685h-2.822ZM67.043 41.651c.736.785 1.66 1.177 2.771 1.177 1.112 0 2.027-.392 2.745-1.177.736-.801 1.103-1.858 1.103-3.171 0-1.313-.367-2.362-1.103-3.146-.718-.802-1.633-1.202-2.745-1.202s-2.035.4-2.77 1.202c-.719.784-1.078 1.833-1.078 3.146s.36 2.37 1.077 3.172Zm7.363 1.637c-1.197 1.228-2.728 1.842-4.592 1.842-1.864 0-3.403-.614-4.618-1.842C64 42.062 63.4 40.459 63.4 38.48c0-1.978.6-3.581 1.796-4.809 1.215-1.228 2.754-1.841 4.618-1.841 1.864 0 3.395.613 4.592 1.841 1.215 1.228 1.822 2.83 1.822 4.809 0 1.978-.607 3.58-1.822 4.809ZM77.897 39.759v-7.674h2.566v7.674c0 .835.29 1.56.872 2.174.599.597 1.334.895 2.206.895.941 0 1.728-.298 2.36-.895.65-.614.975-1.339.975-2.174v-7.674h2.566v12.79h-2.309l-.257-1.28h-.128c-.29.29-.607.546-.949.768-.821.511-1.745.767-2.77.767-1.557 0-2.806-.477-3.746-1.432-.924-.972-1.386-2.285-1.386-3.94ZM91.753 44.874V32.085h2.18l.257 1.151h.128c.017-.017.069-.076.154-.179.103-.102.163-.17.18-.204a3.65 3.65 0 0 1 .205-.18c.103-.102.188-.17.257-.204.068-.034.162-.077.282-.128.12-.068.24-.11.359-.128.137-.034.29-.06.462-.077a2.75 2.75 0 0 1 .539-.05h2.308v2.301h-2.052c-1.796 0-2.694.887-2.694 2.66v7.827h-2.565ZM99.971 44.874V32.085h2.309l.257 1.28h.128a5.85 5.85 0 0 1 .949-.768c.821-.512 1.745-.767 2.771-.767 1.556 0 2.796.486 3.72 1.458.941.954 1.411 2.259 1.411 3.913v7.673h-2.565v-7.673c0-.836-.3-1.552-.898-2.149-.582-.614-1.309-.92-2.181-.92-.941 0-1.736.306-2.386.92-.633.597-.949 1.313-.949 2.149v7.673h-2.566ZM122.039 44.874l-.256-1.407h-.128a3.989 3.989 0 0 1-.924.845c-.821.545-1.796.818-2.925.818-1.402 0-2.522-.367-3.36-1.1-.838-.733-1.257-1.688-1.257-2.864 0-1.313.436-2.345 1.308-3.095.889-.75 2.206-1.126 3.951-1.126h3.207v-.256c0-.835-.24-1.492-.719-1.97-.479-.477-1.137-.715-1.975-.715-.821 0-1.454.187-1.899.562-.444.358-.709.768-.795 1.228h-2.565c.068-1.125.573-2.063 1.513-2.813.941-.768 2.19-1.151 3.746-1.151 1.659 0 2.95.434 3.874 1.304.923.87 1.385 2.055 1.385 3.555v8.185h-2.181Zm-.384-5.371v-.512h-3.079c-.941 0-1.65.188-2.129.563-.462.375-.693.87-.693 1.484 0 .596.197 1.065.59 1.406.393.341.966.512 1.719.512 1.163 0 2.052-.299 2.668-.895.616-.614.924-1.467.924-2.558ZM126.533 44.874V26.97h2.566v17.904h-2.566Z"/></svg>