<svg xmlns="http://www.w3.org/2000/svg" width="157" height="32" fill="none" viewBox="0 0 157 32"><path fill="#20212B" d="M36.9 18.416h2.556a7.18 7.18 0 0 1-.79 1.984 8.176 8.176 0 0 1-1.417 1.846c-.589.585-1.325 1.054-2.208 1.408-.883.354-1.851.53-2.905.53-2.184 0-4.028-.776-5.53-2.33-1.503-1.554-2.254-3.546-2.254-5.977 0-2.43.75-4.422 2.254-5.976 1.502-1.554 3.346-2.33 5.53-2.33 1.921 0 3.525.553 4.81 1.66 1.302 1.093 2.139 2.424 2.51 3.993H36.9c-.402-1.077-1.03-1.9-1.882-2.47-.852-.584-1.813-.876-2.882-.876-1.549 0-2.827.546-3.834 1.638-1.007 1.092-1.51 2.546-1.51 4.361 0 1.816.503 3.27 1.51 4.362 1.007 1.092 2.285 1.638 3.834 1.638 1.24 0 2.262-.33 3.068-.992.821-.677 1.386-1.5 1.696-2.47ZM48.606 23.954l-.232-1.27h-.116a3.593 3.593 0 0 1-.837.762c-.743.492-1.627.738-2.649.738-1.27 0-2.285-.33-3.044-.992-.76-.661-1.139-1.523-1.139-2.584 0-1.185.395-2.115 1.185-2.792.806-.677 1.999-1.016 3.579-1.016h2.905v-.23c0-.754-.217-1.346-.65-1.777-.435-.43-1.031-.646-1.79-.646-.744 0-1.317.169-1.72.507-.403.323-.643.693-.72 1.108h-2.324c.062-1.015.519-1.861 1.371-2.538.852-.693 1.983-1.039 3.393-1.039 1.503 0 2.672.393 3.509 1.177.836.785 1.255 1.854 1.255 3.208v7.384h-1.976Zm-.348-4.846v-.462h-2.789c-.852 0-1.495.17-1.929.508-.418.338-.627.785-.627 1.338 0 .539.178.962.535 1.27.356.307.875.461 1.556.461 1.054 0 1.86-.27 2.417-.807.558-.554.837-1.323.837-2.308ZM52.753 23.954V12.416h1.975l.232 1.038h.117c.015-.015.062-.069.139-.161.093-.092.147-.154.163-.185.03-.03.093-.084.186-.161a.994.994 0 0 1 .232-.185c.062-.03.147-.069.256-.115a.92.92 0 0 1 .325-.116c.124-.03.263-.053.418-.069.155-.03.318-.046.488-.046h2.092v2.077h-1.86c-1.626 0-2.44.8-2.44 2.4v7.06h-2.323ZM62.585 20.239c.62.63 1.402.946 2.347.946.945 0 1.72-.316 2.324-.946.62-.646.93-1.485.93-2.516 0-1.03-.31-1.861-.93-2.492-.605-.646-1.38-.969-2.324-.969-.945 0-1.728.323-2.347.97-.605.63-.907 1.46-.907 2.491 0 1.031.303 1.87.907 2.516Zm-2.882 4.407h2.324c.062.57.356 1.054.883 1.454.542.415 1.255.623 2.138.623.93 0 1.68-.285 2.254-.854.589-.554.883-1.27.883-2.146v-1.846h-.116c-.264.262-.496.47-.697.623-.202.154-.566.323-1.092.508-.527.169-1.131.254-1.813.254-1.472 0-2.696-.508-3.672-1.524-.96-1.03-1.44-2.369-1.44-4.015 0-1.646.48-2.976 1.44-3.992.976-1.03 2.2-1.546 3.672-1.546 1.55 0 2.75.5 3.602 1.5h.116l.233-1.269h2.091v11.307c0 1.538-.48 2.77-1.44 3.692-.961.923-2.301 1.385-4.021 1.385-.899 0-1.704-.139-2.417-.416-.712-.277-1.27-.638-1.673-1.084a5.525 5.525 0 0 1-.906-1.339 3.865 3.865 0 0 1-.349-1.315ZM75.51 21.046c.667.708 1.503 1.062 2.51 1.062s1.836-.354 2.487-1.062c.666-.723 1-1.677 1-2.861 0-1.185-.334-2.13-1-2.838-.65-.723-1.48-1.085-2.487-1.085-1.007 0-1.843.362-2.51 1.085-.65.707-.976 1.653-.976 2.838 0 1.184.326 2.138.977 2.861Zm6.67 1.477c-1.085 1.108-2.471 1.662-4.16 1.662-1.688 0-3.083-.554-4.183-1.662-1.084-1.107-1.626-2.554-1.626-4.338 0-1.784.542-3.23 1.626-4.338 1.1-1.108 2.495-1.662 4.183-1.662 1.689 0 3.076.554 4.16 1.662 1.1 1.107 1.65 2.554 1.65 4.338 0 1.784-.55 3.23-1.65 4.338ZM85.534 23.954V12.416h2.092l.232 1.154h.116a5.29 5.29 0 0 1 .86-.692c.744-.462 1.58-.693 2.51-.693 1.41 0 2.533.439 3.37 1.316.852.861 1.278 2.038 1.278 3.53v6.923h-2.324V17.03c0-.754-.271-1.4-.814-1.938-.526-.554-1.185-.83-1.975-.83-.852 0-1.572.276-2.16.83-.574.538-.86 1.184-.86 1.938v6.923h-2.325ZM100.883 21.046c.666.708 1.502 1.062 2.509 1.062s1.836-.354 2.487-1.062c.666-.723.999-1.677.999-2.861 0-1.185-.333-2.13-.999-2.838-.651-.723-1.48-1.085-2.487-1.085-1.007 0-1.843.362-2.509 1.085-.651.707-.977 1.653-.977 2.838 0 1.184.326 2.138.977 2.861Zm6.669 1.477c-1.084 1.108-2.471 1.662-4.16 1.662-1.688 0-3.083-.554-4.183-1.662-1.084-1.107-1.626-2.554-1.626-4.338 0-1.784.542-3.23 1.626-4.338 1.1-1.108 2.495-1.662 4.183-1.662 1.689 0 3.076.554 4.16 1.662 1.1 1.107 1.65 2.554 1.65 4.338 0 1.784-.55 3.23-1.65 4.338ZM110.906 23.954V12.416h2.092l.232 1.154h.116c.217-.246.488-.477.814-.692.712-.462 1.448-.693 2.207-.693.961 0 1.774.27 2.44.808.295.277.527.546.698.808h.116c.201-.262.503-.531.906-.808.868-.538 1.844-.808 2.928-.808 1.209 0 2.208.423 2.998 1.27.79.83 1.185 1.9 1.185 3.207v7.292h-2.324v-7.269c0-.738-.217-1.323-.65-1.754-.419-.446-.976-.669-1.674-.669-.712 0-1.316.23-1.812.692-.496.462-.744 1.039-.744 1.731v7.269h-2.324v-7.269c0-.738-.217-1.323-.65-1.754-.419-.446-.976-.669-1.674-.669-.712 0-1.316.23-1.812.692-.496.462-.744 1.039-.744 1.731v7.269h-2.324ZM129.799 23.954V12.416h2.324v11.538h-2.324Zm-.116-13.73V7.801h2.556v2.423h-2.556ZM142.667 19.916h2.324a5.568 5.568 0 0 1-.535 1.407 5.83 5.83 0 0 1-.976 1.362c-.402.446-.937.807-1.603 1.084-.666.277-1.41.416-2.231.416-1.689 0-3.083-.554-4.183-1.662-1.084-1.107-1.626-2.554-1.626-4.338 0-1.784.542-3.23 1.626-4.338 1.1-1.108 2.494-1.662 4.183-1.662 1.549 0 2.765.439 3.649 1.316.883.861 1.448 1.807 1.696 2.838h-2.324c-.496-1.385-1.503-2.077-3.021-2.077-1.007 0-1.843.362-2.51 1.085-.65.707-.976 1.653-.976 2.838 0 1.184.326 2.138.976 2.861.667.708 1.503 1.062 2.51 1.062.837 0 1.511-.223 2.022-.67.511-.446.844-.953.999-1.522ZM154.123 23.954l-.233-1.27h-.116a3.575 3.575 0 0 1-.837.762c-.743.492-1.626.738-2.649.738-1.27 0-2.285-.33-3.044-.992-.759-.661-1.139-1.523-1.139-2.584 0-1.185.395-2.115 1.186-2.792.805-.677 1.998-1.016 3.578-1.016h2.905v-.23c0-.754-.217-1.346-.651-1.777-.433-.43-1.03-.646-1.789-.646-.744 0-1.317.169-1.72.507-.402.323-.643.693-.72 1.108h-2.324c.062-1.015.519-1.861 1.371-2.538.852-.693 1.983-1.039 3.393-1.039 1.503 0 2.672.393 3.509 1.177.837.785 1.255 1.854 1.255 3.208v7.384h-1.975Zm-.349-4.846v-.462h-2.789c-.852 0-1.495.17-1.928.508-.419.338-.628.785-.628 1.338 0 .539.178.962.535 1.27.356.307.875.461 1.557.461 1.053 0 1.859-.27 2.416-.807.558-.554.837-1.323.837-2.308ZM4.605 10.125H0V7.57h8.43L6.772 9.227c-.705.705-1.17.898-2.168.898Zm.92 2.678 5.232-5.233h-.883l-2.38 2.38c-.905.906-1.607 1.196-2.889 1.196H0v2.555h3.357c.997 0 1.463-.193 2.168-.898Zm-2.496 7.152L15.414 7.57h-.884L5 17.102c-.906.906-1.608 1.197-2.89 1.197H0v2.554h.861c.997 0 1.463-.193 2.168-.898Zm.722.723c-.906.906-1.608 1.197-2.89 1.197H0v2.554h16.858V7.57L3.752 20.678Zm.526-4.299 8.808-8.809h-.883l-5.955 5.956c-.906.906-1.608 1.196-2.89 1.196H0v2.555h2.11c.996 0 1.462-.193 2.167-.898Z"/></svg>