<svg xmlns="http://www.w3.org/2000/svg" width="340" height="60" fill="none" viewBox="0 0 340 60"><path fill="#fff" d="M79.98 32.981h5.54c-.335 1.468-.906 2.901-1.712 4.302-.772 1.4-1.797 2.734-3.073 4-1.275 1.268-2.87 2.285-4.784 3.052-1.914.767-4.013 1.15-6.296 1.15-4.735 0-8.73-1.684-11.988-5.051-3.257-3.368-4.886-7.686-4.886-12.954 0-5.268 1.629-9.586 4.886-12.954 3.257-3.368 7.253-5.051 11.988-5.051 4.163 0 7.639 1.2 10.426 3.6 2.82 2.368 4.634 5.252 5.44 8.653H79.98c-.873-2.334-2.233-4.118-4.08-5.351-1.847-1.267-3.928-1.9-6.245-1.9-3.358 0-6.129 1.183-8.311 3.55-2.183 2.367-3.274 5.518-3.274 9.453 0 3.934 1.091 7.085 3.274 9.453 2.182 2.367 4.953 3.55 8.31 3.55 2.687 0 4.903-.716 6.65-2.15 1.779-1.467 3.004-3.251 3.676-5.352ZM105.352 44.985l-.503-2.75h-.252a7.796 7.796 0 0 1-1.813 1.65c-1.612 1.067-3.526 1.6-5.742 1.6-2.754 0-4.953-.717-6.599-2.15-1.645-1.434-2.468-3.302-2.468-5.602 0-2.568.857-4.585 2.57-6.052 1.745-1.467 4.33-2.2 7.756-2.2h6.296v-.5c0-1.635-.47-2.918-1.411-3.852-.94-.934-2.232-1.4-3.878-1.4-1.612 0-2.854.367-3.727 1.1-.873.7-1.394 1.5-1.562 2.4h-5.036c.134-2.2 1.125-4.034 2.971-5.5 1.847-1.501 4.299-2.252 7.354-2.252 3.257 0 5.792.85 7.606 2.551 1.813 1.7 2.72 4.018 2.72 6.952v16.005h-4.282Zm-.755-10.503v-1h-6.044c-1.847 0-3.24.366-4.18 1.1-.907.733-1.36 1.7-1.36 2.9 0 1.168.385 2.085 1.158 2.752.772.666 1.897 1 3.374 1 2.284 0 4.03-.584 5.239-1.75 1.208-1.201 1.813-2.868 1.813-5.002ZM114.339 44.985V19.978h4.282l.503 2.25h.252c.034-.033.134-.15.302-.35.202-.2.319-.333.353-.4.067-.067.201-.183.403-.35.201-.2.369-.333.503-.4.135-.067.319-.15.555-.25.235-.134.47-.217.705-.25.268-.067.571-.117.906-.15.336-.067.689-.1 1.058-.1h4.533v4.501h-4.029c-3.526 0-5.289 1.734-5.289 5.201v15.305h-5.037ZM135.649 36.933c1.344 1.367 3.039 2.05 5.088 2.05 2.048 0 3.727-.683 5.036-2.05 1.344-1.4 2.015-3.218 2.015-5.452s-.671-4.035-2.015-5.402c-1.309-1.4-2.988-2.1-5.036-2.1-2.049 0-3.744.7-5.088 2.1-1.309 1.367-1.964 3.168-1.964 5.402s.655 4.051 1.964 5.452Zm-6.245 9.552h5.037c.134 1.234.772 2.284 1.914 3.151 1.175.9 2.72 1.35 4.633 1.35 2.015 0 3.644-.616 4.886-1.85 1.276-1.2 1.914-2.75 1.914-4.651v-4.001h-.252a16.027 16.027 0 0 1-1.511 1.35c-.436.333-1.225.7-2.367 1.1-1.142.367-2.451.55-3.929.55-3.19 0-5.842-1.1-7.958-3.3-2.082-2.234-3.123-5.135-3.123-8.703 0-3.568 1.041-6.452 3.123-8.653 2.116-2.233 4.768-3.35 7.958-3.35 3.358 0 5.961 1.083 7.807 3.25h.252l.504-2.75h4.533v24.507c0 3.334-1.041 6.002-3.123 8.002-2.082 2-4.986 3-8.714 3-1.947 0-3.693-.3-5.238-.9-1.544-.6-2.753-1.383-3.626-2.35-.84-.934-1.495-1.9-1.965-2.9-.436-.968-.688-1.918-.755-2.852ZM163.666 38.683c1.444 1.534 3.257 2.3 5.439 2.3 2.183 0 3.98-.766 5.39-2.3 1.444-1.567 2.166-3.634 2.166-6.202 0-2.567-.722-4.618-2.166-6.152-1.41-1.567-3.207-2.35-5.39-2.35-2.182 0-3.995.783-5.439 2.35-1.411 1.534-2.116 3.585-2.116 6.152 0 2.568.705 4.635 2.116 6.202Zm14.455 3.201c-2.35 2.4-5.355 3.601-9.016 3.601-3.66 0-6.682-1.2-9.066-3.601-2.35-2.4-3.526-5.535-3.526-9.403 0-3.868 1.176-7.002 3.526-9.402 2.384-2.401 5.406-3.602 9.066-3.602 3.661 0 6.666 1.2 9.016 3.602 2.384 2.4 3.576 5.534 3.576 9.402 0 3.868-1.192 7.002-3.576 9.403ZM185.392 44.985V19.978h4.533l.504 2.5h.251a11.486 11.486 0 0 1 1.864-1.5c1.612-1 3.425-1.5 5.44-1.5 3.056 0 5.49.95 7.303 2.85 1.847 1.867 2.77 4.418 2.77 7.653v15.004h-5.036V29.98c0-1.634-.588-3.035-1.763-4.202-1.142-1.2-2.569-1.8-4.282-1.8-1.846 0-3.408.6-4.684 1.8-1.242 1.167-1.863 2.568-1.863 4.202v15.004h-5.037ZM218.658 38.683c1.444 1.534 3.257 2.3 5.44 2.3 2.183 0 3.979-.766 5.389-2.3 1.444-1.567 2.166-3.634 2.166-6.202 0-2.567-.722-4.618-2.166-6.152-1.41-1.567-3.206-2.35-5.389-2.35-2.183 0-3.996.783-5.44 2.35-1.41 1.534-2.115 3.585-2.115 6.152 0 2.568.705 4.635 2.115 6.202Zm14.456 3.201c-2.351 2.4-5.356 3.601-9.016 3.601s-6.682-1.2-9.066-3.601c-2.351-2.4-3.526-5.535-3.526-9.403 0-3.868 1.175-7.002 3.526-9.402 2.384-2.401 5.406-3.602 9.066-3.602 3.66 0 6.665 1.2 9.016 3.602 2.384 2.4 3.576 5.534 3.576 9.402 0 3.868-1.192 7.002-3.576 9.403ZM240.384 44.985V19.978h4.533l.504 2.5h.252c.47-.533 1.058-1.033 1.763-1.5 1.544-1 3.139-1.5 4.785-1.5 2.082 0 3.845.583 5.288 1.75.638.6 1.142 1.184 1.511 1.75h.252c.437-.566 1.092-1.15 1.965-1.75 1.88-1.167 3.996-1.75 6.346-1.75 2.619 0 4.785.916 6.498 2.75 1.712 1.8 2.568 4.118 2.568 6.952v15.805h-5.037V29.23c0-1.6-.47-2.867-1.41-3.8-.906-.968-2.115-1.451-3.626-1.451-1.545 0-2.854.5-3.929 1.5-1.075 1-1.612 2.25-1.612 3.751v15.755h-5.037V29.23c0-1.6-.47-2.867-1.41-3.8-.907-.968-2.115-1.451-3.626-1.451-1.545 0-2.855.5-3.929 1.5-1.075 1-1.612 2.25-1.612 3.751v15.755h-5.037ZM281.333 44.985V19.978h5.037v25.007h-5.037Zm-.252-29.759V9.975h5.541v5.251h-5.541ZM309.224 36.232h5.037a12.082 12.082 0 0 1-1.159 3.051c-.503 1-1.208 1.984-2.115 2.951-.873.967-2.032 1.75-3.475 2.35-1.444.601-3.056.901-4.836.901-3.66 0-6.682-1.2-9.066-3.601-2.351-2.4-3.526-5.535-3.526-9.403 0-3.868 1.175-7.002 3.526-9.402 2.384-2.401 5.406-3.602 9.066-3.602 3.358 0 5.994.95 7.908 2.851 1.914 1.867 3.14 3.918 3.677 6.152h-5.037c-1.074-3-3.257-4.501-6.548-4.501-2.182 0-3.996.783-5.44 2.35-1.41 1.534-2.115 3.585-2.115 6.152 0 2.568.705 4.635 2.115 6.202 1.444 1.534 3.258 2.3 5.44 2.3 1.813 0 3.274-.483 4.382-1.45 1.108-.967 1.83-2.067 2.166-3.3ZM334.053 44.985l-.503-2.75h-.252a7.796 7.796 0 0 1-1.813 1.65c-1.612 1.067-3.526 1.6-5.742 1.6-2.754 0-4.953-.717-6.599-2.15-1.645-1.434-2.468-3.302-2.468-5.602 0-2.568.857-4.585 2.569-6.052 1.746-1.467 4.332-2.2 7.757-2.2h6.296v-.5c0-1.635-.47-2.918-1.41-3.852-.941-.934-2.233-1.4-3.879-1.4-1.612 0-2.854.367-3.727 1.1-.873.7-1.394 1.5-1.562 2.4h-5.036c.134-2.2 1.125-4.034 2.971-5.5 1.847-1.501 4.299-2.252 7.354-2.252 3.257 0 5.792.85 7.606 2.551 1.813 1.7 2.72 4.018 2.72 6.952v16.005h-4.282Zm-.755-10.503v-1h-6.044c-1.847 0-3.241.366-4.181 1.1-.907.733-1.36 1.7-1.36 2.9 0 1.168.386 2.085 1.159 2.752.772.666 1.897 1 3.374 1 2.284 0 4.03-.584 5.239-1.75 1.208-1.201 1.813-2.868 1.813-5.002ZM9.982 14.873H0V9.387h18.27l-3.59 3.558c-1.528 1.514-2.537 1.928-4.698 1.928Zm1.992 5.752L23.316 9.387h-1.914l-5.157 5.11c-1.964 1.945-3.485 2.57-6.263 2.57H0v5.485l7.277.001c2.16 0 3.17-.414 4.697-1.928Zm-5.41 15.36L33.408 9.387h-1.914l-20.66 20.47c-1.963 1.945-3.484 2.57-6.262 2.57H0v5.486h1.867c2.16 0 3.17-.414 4.697-1.928Zm1.566 1.552c-1.964 1.945-3.485 2.57-6.263 2.57H0v5.486h36.54V9.386L8.13 37.537Zm1.14-9.232L28.361 9.387h-1.914L13.54 22.177c-1.964 1.945-3.485 2.57-6.263 2.57H0v5.486h4.572c2.16 0 3.17-.414 4.697-1.928Z"/></svg>