<svg xmlns="http://www.w3.org/2000/svg" width="125" height="64" fill="none" viewBox="0 0 125 64"><path fill="#A7ADC8" d="M41.563 34.092h6.855v2.237h-3.264v15.809h-3.591zm10.921 11.26.605-9.029h.206l.605 9.03zm-3.98 6.78h3.519l.333-4.791h1.697l.332 4.79h3.512l-1.871-18.04h-5.65l-1.872 18.04Zm14.535-6.318v3.4a.56.56 0 0 0 .562.608.61.61 0 0 0 .57-.609v-4.22c0-.565-.102-1.215-1.44-1.215h-1.46V41.85h1.513c1.023 0 1.387-.237 1.387-1.344V36.92a.61.61 0 0 0-.57-.608.55.55 0 0 0-.536.377q-.04.112-.026.231v2.943h-3.593v-2.554c0-1.258.152-3.216 2.666-3.216h2.98c2.519 0 2.677 1.958 2.677 3.216v2.888c0 1.958-1.363 2.5-2.423 2.432v.183c2.423-.055 2.423 1.824 2.423 2.432v3.648c0 1.265-.158 3.223-2.677 3.223h-2.98c-2.514 0-2.666-1.958-2.666-3.223v-3.077h3.593Zm7.098-11.722h8.323v18.04h-3.598V36.323H73.73v15.809h-3.593zm14.277 9.923v-7.686h.466c.382 0 .667.335.667.9v5.88c0 .571-.285.906-.667.906zm-3.593 8.117h3.593v-6.135h2.06c2.513 0 2.664-1.958 2.664-3.223v-5.472c0-1.258-.15-3.216-2.665-3.216h-5.652zm15.41-2.919a.61.61 0 0 1-.564.608.564.564 0 0 1-.569-.608V36.92a.56.56 0 0 1 .15-.432.56.56 0 0 1 .42-.176.56.56 0 0 1 .412.182.56.56 0 0 1 .151.426zm-4.724-.304c0 1.265.15 3.223 2.671 3.223h2.974c2.52 0 2.67-1.958 2.67-3.223v-11.6c0-1.26-.15-3.217-2.67-3.217h-2.974c-2.52 0-2.67 1.958-2.67 3.216zm20.026-14.817h4.67v18.04h-3.591V40.816h-.128l-1.853 11.316h-2.87l-1.854-11.316h-.127v11.316h-3.591v-18.04h4.67l2.337 12.677zm-74.63-24.68C35.783 4.578 33.04.644 32.663 0a32.7 32.7 0 0 0-3.924 8.233 29.9 29.9 0 0 0-.976 11.862 33 33 0 0 0 2 7.607 26.2 26.2 0 0 0 2.92 5.253 28.5 28.5 0 0 0 4.844-12.337c.455-3.393.472-6.366-.624-11.206m-4.24 22.339a13.2 13.2 0 0 1-1.46-5.977c0-2.066.508-4.1 1.48-5.922a13.7 13.7 0 0 1 1.416 5.685 12.8 12.8 0 0 1-1.435 6.214Zm3.92-14.118a26 26 0 0 1-.546 4.955c.07-2.364-.133-4.73-.606-7.047a30.3 30.3 0 0 0-2.792-7.637 30.6 30.6 0 0 0-2.755 7.588 35.8 35.8 0 0 0-.643 7.127 35.7 35.7 0 0 1-.459-6.908c.115-2.116.45-4.215.999-6.262a33.6 33.6 0 0 1 2.858-6.883A31 31 0 0 1 35.54 9.35a30.4 30.4 0 0 1 1.042 8.282Z"/><path fill="#A7ADC8" d="M26.159 34.086v5.636a5.043 5.043 0 0 1 7.044.098 5.08 5.08 0 0 1 .097 7.07 10.07 10.07 0 0 1-6.643 2.915 10.07 10.07 0 0 1-6.875-2.309 10.163 10.163 0 0 1-1.962-13.44 10 10 0 0 1 1.21-1.509 10.1 10.1 0 0 1 3.27-2.197 10 10 0 0 1 3.859-.77V16.058a17.9 17.9 0 0 0-8.53 2.164 18 18 0 0 0-6.483 5.973 18.1 18.1 0 0 0-1.46 17.065 18 18 0 0 0 5.372 6.995 17.9 17.9 0 0 0 8.038 3.594 17.9 17.9 0 0 0 8.773-.67 17.96 17.96 0 0 0 7.404-4.775V34.085z"/></svg>