<svg xmlns="http://www.w3.org/2000/svg" width="208" height="64" fill="none" viewBox="0 0 208 64"><path fill="#A7ADC8" d="m93.23 25.583 4.321-3.216H83.08v19.264h14.47v-3.216H87.215v-4.918h8.834V30.28h-8.834v-4.698h6.014Zm-21.084 4.288h-5.012v-4.288h8.02l4.322-3.216H63v19.264h8.614c4.824 0 7.613-2.206 7.613-6.053 0-3.69-2.507-5.707-7.08-5.707Zm-.689 8.544h-4.323v-5.328h4.323c2.631 0 3.853.883 3.853 2.68 0 1.796-1.316 2.648-3.853 2.648m37.811-16.048h-7.864v19.264h4.135v-5.454h3.758c5.013 0 8.145-2.648 8.145-6.904s-3.13-6.906-8.174-6.906m-.094 10.594h-3.666v-7.378h3.666c2.663 0 4.103 1.324 4.103 3.69 0 2.364-1.44 3.688-4.103 3.688m-53.255 4.508a7.4 7.4 0 0 1-3.571.914c-3.727 0-6.422-2.68-6.422-6.368 0-3.69 2.694-6.37 6.422-6.37a6.2 6.2 0 0 1 3.76 1.2l2.975-2.207-.188-.19c-1.722-1.545-4.04-2.333-6.672-2.333-2.851 0-5.452.978-7.33 2.743a9.5 9.5 0 0 0-2.172 3.212 9.55 9.55 0 0 0-.711 3.819 10 10 0 0 0 .723 3.871 10 10 0 0 0 2.16 3.286c1.974 1.86 4.603 2.9 7.298 2.837 2.976 0 5.576-1.04 7.33-2.933l-2.662-1.985zm111.239-15.07v19.263h4.135V33.78h8.804v7.88h4.134V22.4h-4.134v7.914h-8.804V22.4zm-7.11 19.263h4.353l-8.081-19.263h-4.199l-8.238 19.263h4.167l1.66-3.877h8.771zm-9.085-7.093 3.195-7.724 3.007 7.724zm42.541-.694h2.569l6.327 7.756h5.326l-8.458-9.962 7.393-9.302h-4.731l-6.139 8.26h-2.287v-8.26h-4.135v19.264h4.135zm-63.28-3.973v-4.285h10.808v-3.218H126.09v19.263h8.615c4.824 0 7.611-2.207 7.611-6.053 0-3.688-2.505-5.707-7.078-5.707zm0 3.216h4.323c2.633 0 3.854.883 3.854 2.68s-1.285 2.68-3.854 2.68h-4.323zM29.073 22.242a17 17 0 0 1 1.91 3.184l-14.472 10.75-6.077-3.846v-4.603l6.045 3.815zm-24.81 9.775c0-.221 0-.41.031-.63l-3.665-.19c0 .254-.031.536-.031.788a16.02 16.02 0 0 0 4.667 11.319l2.6-2.617a12.1 12.1 0 0 1-2.67-3.97 12.2 12.2 0 0 1-.932-4.7m12.223-12.296c.218 0 .406 0 .626.032l.188-3.69c-.251 0-.532-.03-.783-.03-4.385 0-8.365 1.796-11.247 4.697l2.602 2.616a12.1 12.1 0 0 1 3.945-2.682 12 12 0 0 1 4.669-.943m-.011 24.589c-.219 0-.407 0-.627-.03l-.188 3.688c.252 0 .533.032.785.032 4.385 0 8.363-1.797 11.245-4.697l-2.6-2.617c-2.192 2.27-5.231 3.625-8.615 3.625Z"/><path fill="#A7ADC8" d="m23.372 21.864 3.102-2.301A15.85 15.85 0 0 0 16.48 16v3.69c2.57.03 4.95.818 6.892 2.174m9.026 10.152c0-.977-.094-1.924-.252-2.87L28.732 31.7v.316c.002 1.72-.357 3.42-1.054 4.99a12.2 12.2 0 0 1-2.987 4.12l2.475 2.745a16 16 0 0 0 3.866-5.37 16.05 16.05 0 0 0 1.366-6.485M16.477 44.31a12.1 12.1 0 0 1-4.958-1.06 12.1 12.1 0 0 1-4.095-3.006L4.7 42.734a15.8 15.8 0 0 0 5.332 3.896A15.7 15.7 0 0 0 16.477 48zM8.304 22.905 5.83 20.162a15.9 15.9 0 0 0-3.87 5.366 16 16 0 0 0-1.361 6.487l3.665.002c.002-1.719.363-3.42 1.059-4.989a12.3 12.3 0 0 1 2.982-4.123Z"/></svg>