<svg xmlns="http://www.w3.org/2000/svg" width="113" height="64" fill="none" viewBox="0 0 113 64"><g fill="#A7ADC8" clip-path="url(#a)"><path d="M74.589 43.315c-2.08.54-4.78.8-7.12.8-6 0-10-3.2-10-9.06 0-5.54 3.7-9.14 9.14-9.14 1.2 0 2.5.16 3.28.56v-8.08h4.7zm-4.7-12.7a6.8 6.8 0 0 0-2.88-.56c-2.86 0-4.78 1.76-4.78 4.86 0 3.32 2.08 5.2 5.4 5.2.6 0 1.48-.06 2.26-.2v-9.32zm43.16 12.7c-2.08.54-4.76.8-7.12.8-6 0-10-3.2-10-9.06 0-5.54 3.72-9.14 9.14-9.14 1.22 0 2.5.16 3.3.56v-8.08h4.68zm-4.68-12.7a6.8 6.8 0 0 0-2.9-.56c-2.86 0-4.76 1.76-4.76 4.86 0 3.32 2.06 5.2 5.4 5.2.58 0 1.48-.06 2.26-.2v-9.32zm-26.4-.04c.76-.32 1.86-.44 2.8-.44 2.88 0 4.88 1.68 4.88 4.7 0 3.54-2.2 5.14-5.16 5.2v4.08h.24c6.06 0 9.68-3.4 9.68-9.44 0-5.52-3.86-8.76-9.56-8.76-2.9 0-5.74.68-7.62 1.46v23.4h4.72v-20.2zm-49.963-1.16a.72.72 0 0 1-.68 0l-1.1-.68a.74.74 0 0 1-.24-.24v-.02a.74.74 0 0 1-.12-.36l-.04-1.3a.72.72 0 0 1 .34-.6l13.4-7.8-18.8-10.24a1.74 1.74 0 0 0-1.52 0l-18.8 10.22 21.06 12.26a.72.72 0 0 1 .34.6v17.88a.72.72 0 0 1-.34.6l-1.14.6a.74.74 0 0 1-.34.1h-.02a.74.74 0 0 1-.36-.08l-1.14-.64a.72.72 0 0 1-.36-.6v-15.92a.44.44 0 0 0-.2-.32l-18.54-10.78v21.16c0 .46.34 1.06.74 1.3l19.12 11.26a1.64 1.64 0 0 0 1.48 0l19.12-11.26c.4-.26.74-.84.74-1.3v-21.16z"/></g><defs><clipPath id="a"><path fill="#fff" d="M.2 0h112v64H.2z"/></clipPath></defs></svg>