<svg xmlns="http://www.w3.org/2000/svg" width="132" height="52" fill="none" viewBox="0 0 132 52"><path fill="#944B96" d="M16.3 11.455H5.525V5.477H25.25l-3.877 3.878c-1.649 1.649-2.738 2.1-5.071 2.1Zm2.152 6.268L30.697 5.477H28.63l-5.567 5.568c-2.12 2.12-3.763 2.8-6.762 2.8H5.524v5.978h7.856c2.333 0 3.423-.451 5.072-2.1m-5.84 16.736 28.98-28.982h-2.066L17.222 27.781c-2.12 2.12-3.763 2.8-6.762 2.8H5.524v5.978H7.54c2.332 0 3.422-.45 5.071-2.1Zm1.69 1.69c-2.12 2.12-3.763 2.801-6.762 2.801H5.524v5.977h39.45V5.477L14.3 36.15Zm1.23-10.058L36.145 5.477h-2.067L20.142 19.413c-2.12 2.12-3.762 2.8-6.761 2.8H5.523v5.978h4.936c2.333 0 3.422-.45 5.072-2.1Z"/><path fill="#20212B" d="M72.496 16.355h2.822a8 8 0 0 1-.872 2.2A9 9 0 0 1 72.88 20.6q-.975.972-2.438 1.56-1.461.588-3.206.588-3.618 0-6.106-2.583-2.49-2.583-2.489-6.625 0-4.041 2.489-6.624 2.488-2.584 6.106-2.584 3.18 0 5.31 1.842 2.155 1.816 2.77 4.425h-2.821q-.667-1.79-2.078-2.737-1.41-.972-3.181-.972-2.566 0-4.233 1.816-1.668 1.816-1.668 4.834t1.668 4.835q1.667 1.816 4.233 1.816 2.052 0 3.386-1.1 1.359-1.125 1.873-2.737Zm12.711 6.139-.257-1.407h-.128a4 4 0 0 1-.924.844q-1.23.819-2.924.818-2.105 0-3.36-1.1-1.258-1.1-1.258-2.864 0-1.97 1.309-3.095 1.334-1.125 3.95-1.125h3.207v-.256q0-1.253-.718-1.97-.72-.716-1.976-.716-1.23 0-1.898.563-.667.537-.795 1.228h-2.566q.103-1.689 1.514-2.814 1.41-1.15 3.745-1.151 2.489 0 3.874 1.304t1.386 3.556v8.185zm-.385-5.372v-.511h-3.079q-1.41 0-2.129.562-.693.563-.693 1.484 0 .895.59 1.407.59.51 1.72.511 1.744 0 2.668-.895.923-.92.923-2.558m4.75 5.372V9.704h2.18l.257 1.152h.129q.025-.025.154-.18a1.2 1.2 0 0 0 .18-.204q.05-.051.205-.179a1.1 1.1 0 0 1 .256-.205q.102-.05.282-.128.18-.102.36-.127.204-.052.461-.077a3 3 0 0 1 .539-.051h2.309v2.302H94.83q-2.693 0-2.693 2.66v7.827h-2.566Zm10.642-4.118q1.026 1.048 2.591 1.048t2.566-1.048q1.026-1.075 1.026-2.788 0-1.715-1.026-2.763-1-1.074-2.566-1.074t-2.591 1.074q-1 1.05-1 2.763t1 2.788m-3.18 4.885h2.565q.102.946.974 1.611.898.69 2.361.691 1.539 0 2.488-.946.975-.92.975-2.38v-2.045h-.128q-.436.435-.77.69-.333.255-1.206.563-.871.282-2.001.281-2.437 0-4.053-1.688-1.59-1.713-1.59-4.45t1.59-4.425q1.616-1.714 4.053-1.714 2.566 0 3.977 1.662h.128l.257-1.406h2.309v12.533q0 2.558-1.591 4.092-1.59 1.535-4.438 1.535-1.489 0-2.668-.46t-1.848-1.203a6.1 6.1 0 0 1-1-1.483 4.3 4.3 0 0 1-.385-1.458Zm17.238-3.991q1.103 1.177 2.771 1.177t2.745-1.176q1.103-1.203 1.103-3.172t-1.103-3.146q-1.077-1.202-2.745-1.202c-1.668 0-2.035.4-2.771 1.202q-1.077 1.177-1.077 3.146c0 1.969.359 2.37 1.077 3.172Zm7.363 1.638q-1.796 1.84-4.592 1.841t-4.618-1.841q-1.796-1.841-1.796-4.809 0-2.966 1.796-4.809 1.822-1.84 4.618-1.841t4.592 1.841q1.821 1.842 1.821 4.81 0 2.966-1.821 4.808M56.333 49.99v-2.302h2.053q.77 0 .77-.895V32.085h2.565v15.22q0 1.252-.744 1.969-.719.716-2.078.716zm2.694-20.335V26.97h2.822v2.685zm8.016 11.996q1.104 1.177 2.771 1.177 1.668 0 2.745-1.177 1.103-1.202 1.103-3.171 0-1.97-1.103-3.146-1.077-1.203-2.745-1.202c-1.668.001-2.035.4-2.77 1.202q-1.078 1.176-1.078 3.146c0 1.97.36 2.37 1.077 3.172Zm7.363 1.637q-1.796 1.842-4.592 1.842t-4.618-1.842q-1.795-1.84-1.796-4.808.001-2.967 1.796-4.809 1.822-1.842 4.618-1.841 2.796 0 4.592 1.841 1.822 1.841 1.822 4.809 0 2.966-1.822 4.809Zm3.491-3.529v-7.674h2.566v7.674q0 1.253.872 2.174.898.895 2.206.895 1.412 0 2.36-.895.975-.921.975-2.174v-7.674h2.566v12.79h-2.309l-.257-1.28h-.128q-.436.435-.949.768-1.232.767-2.77.767-2.336 0-3.746-1.432-1.386-1.458-1.386-3.94Zm13.856 5.115V32.085h2.18l.257 1.151h.128a4 4 0 0 0 .154-.179q.154-.153.18-.204a4 4 0 0 1 .205-.18q.154-.153.257-.204.102-.051.282-.128.18-.101.359-.128.205-.051.462-.077a3 3 0 0 1 .539-.05h2.308v2.301h-2.052q-2.694 0-2.694 2.66v7.827zm8.218 0V32.085h2.309l.257 1.28h.128a6 6 0 0 1 .949-.768q1.232-.767 2.771-.767 2.334 0 3.72 1.458 1.411 1.432 1.411 3.913v7.673h-2.565v-7.673q0-1.254-.898-2.149-.873-.92-2.181-.92-1.411 0-2.386.92-.95.895-.949 2.149v7.673zm22.068 0-.256-1.407h-.128a4 4 0 0 1-.924.845q-1.231.818-2.925.818-2.103 0-3.36-1.1t-1.257-2.864q0-1.97 1.308-3.095 1.334-1.125 3.951-1.126h3.207v-.256q0-1.253-.719-1.97-.718-.715-1.975-.715-1.231 0-1.899.562-.666.538-.795 1.228h-2.565q.102-1.688 1.513-2.813 1.412-1.152 3.746-1.151 2.488 0 3.874 1.304 1.385 1.305 1.385 3.555v8.185zm-.384-5.371v-.512h-3.079q-1.411 0-2.129.563-.693.563-.693 1.484 0 .894.59 1.406t1.719.512q1.744 0 2.668-.895.924-.921.924-2.558m4.878 5.371V26.97h2.566v17.904z"/></svg>