<svg xmlns="http://www.w3.org/2000/svg" width="162" height="52" fill="none" viewBox="0 0 162 52"><path fill="#20212B" d="M71.939 18.717h2.884a8.2 8.2 0 0 1-.891 2.256 9.3 9.3 0 0 1-1.6 2.098q-.997.996-2.491 1.6-1.496.602-3.278.602-3.698 0-6.241-2.648-2.544-2.649-2.544-6.792 0-4.144 2.544-6.792 2.543-2.649 6.24-2.649 3.253 0 5.43 1.888 2.202 1.862 2.831 4.537H71.94q-.683-1.837-2.124-2.806-1.443-.997-3.252-.997-2.622 0-4.327 1.862-1.704 1.863-1.705 4.957 0 3.094 1.705 4.956 1.704 1.862 4.327 1.862 2.097 0 3.461-1.128 1.39-1.153 1.915-2.806Zm12.731 6.294-.263-1.442h-.13q-.395.498-.945.865-1.258.84-2.99.84-2.15 0-3.435-1.128-1.284-1.128-1.285-2.937 0-2.02 1.338-3.174 1.363-1.153 4.038-1.153h3.278v-.263q0-1.285-.734-2.019-.735-.735-2.02-.734-1.257 0-1.94.577-.681.55-.813 1.259h-2.622q.104-1.731 1.547-2.885 1.443-1.18 3.829-1.18 2.544 0 3.96 1.337 1.416 1.338 1.416 3.645v8.392h-2.23Zm-.394-5.507v-.524H81.13q-1.442 0-2.176.576-.708.578-.708 1.521 0 .918.603 1.443t1.757.524q1.783 0 2.727-.918.945-.944.944-2.622Zm4.594 5.507V11.9h2.229l.262 1.18h.13q.026-.026.158-.183.157-.158.184-.21.053-.052.21-.184.156-.158.262-.21a7 7 0 0 1 .288-.13q.184-.105.367-.132.21-.052.473-.078a3 3 0 0 1 .55-.053h2.36v2.36h-2.098q-2.753 0-2.753 2.727v8.025h-2.623Zm10.616-4.222q1.049 1.075 2.648 1.075t2.623-1.075q1.048-1.101 1.048-2.858t-1.048-2.833q-1.023-1.101-2.623-1.101t-2.648 1.101q-1.023 1.075-1.023 2.833 0 1.756 1.023 2.858m-3.252 5.009h2.622q.105.97.997 1.652.918.708 2.412.708 1.573 0 2.544-.97.996-.945.996-2.44v-2.097h-.131a8 8 0 0 1-.786.708q-.341.262-1.233.577-.891.288-2.045.288-2.491 0-4.144-1.73-1.626-1.758-1.626-4.563 0-2.806 1.626-4.537 1.653-1.757 4.144-1.757 2.622 0 4.064 1.704h.131l.263-1.442h2.36v12.85q0 2.622-1.626 4.196t-4.537 1.573q-1.521 0-2.727-.472-1.206-.473-1.888-1.232a6.3 6.3 0 0 1-1.023-1.521 4.4 4.4 0 0 1-.393-1.495m17.359-4.091q1.128 1.206 2.832 1.206c1.704 0 2.072-.402 2.806-1.206q1.128-1.233 1.128-3.252t-1.128-3.225q-1.102-1.233-2.806-1.233t-2.832 1.232q-1.101 1.207-1.101 3.226c0 2.019.367 2.43 1.101 3.252m7.526 1.678q-1.835 1.888-4.694 1.888t-4.72-1.888q-1.836-1.888-1.836-4.93t1.836-4.93q1.862-1.888 4.72-1.888 2.859 0 4.694 1.888 1.862 1.888 1.862 4.93t-1.862 4.93M58.302 46.203V33.09h2.623v13.112zm-.13-15.604v-2.753h2.884v2.753H58.17Zm4.863 15.604V33.09h2.36l.262 1.31h.131q.447-.445.97-.786 1.26-.786 2.833-.787 2.385 0 3.802 1.495 1.443 1.47 1.443 4.012v7.868h-2.623v-7.868q0-1.284-.918-2.202-.891-.945-2.229-.944-1.442 0-2.438.944-.97.917-.97 2.202v7.868zm12.855-3.934h2.622q0 .708.787 1.337.786.63 2.229.63 1.363 0 2.045-.498.708-.525.708-1.207 0-.708-.445-1.101-.447-.42-1.521-.603l-2.36-.394q-3.803-.63-3.803-3.802 0-1.652 1.337-2.727 1.365-1.076 3.908-1.076 1.337 0 2.412.42 1.102.42 1.705 1.075.63.655.944 1.338.315.655.315 1.232H84.15q0-.681-.708-1.259-.708-.576-2.045-.577-1.311 0-1.967.472-.656.447-.656 1.102 0 1.18 1.967 1.573l2.36.394q3.803.63 3.803 3.933 0 1.68-1.39 2.806-1.365 1.128-3.986 1.128-1.47 0-2.649-.446-1.153-.445-1.783-1.128a6 6 0 0 1-.918-1.337q-.288-.682-.288-1.285m12.334-1.311V33.09h2.623v7.867q0 1.286.891 2.229.918.918 2.255.918 1.443 0 2.413-.918.996-.944.997-2.23V33.09h2.622v13.112h-2.36l-.262-1.312h-.132q-.445.447-.97.787-1.258.787-2.832.787-2.385 0-3.829-1.469-1.416-1.494-1.416-4.038Zm13.901 5.245V33.09h2.229l.262 1.18h.131a4 4 0 0 0 .158-.184q.157-.157.183-.21.053-.052.21-.183.157-.157.262-.21c.105-.053.166-.079.289-.131q.183-.105.367-.131.21-.052.472-.079a3 3 0 0 1 .551-.052h2.36v2.36h-2.098q-2.754 0-2.754 2.727v8.025h-2.622Zm16.149 0-.262-1.443h-.131q-.393.498-.944.866-1.259.84-2.99.839-2.15 0-3.435-1.128t-1.285-2.937q0-2.02 1.337-3.173 1.364-1.154 4.039-1.154h3.278v-.262q0-1.285-.735-2.02-.734-.734-2.019-.734-1.259 0-1.94.577-.683.55-.813 1.26h-2.623q.105-1.732 1.548-2.886 1.441-1.18 3.828-1.18 2.544 0 3.96 1.338 1.416 1.337 1.416 3.645v8.392zm-.393-5.507v-.525h-3.147q-1.443 0-2.177.577-.708.578-.708 1.521 0 .918.603 1.442.604.525 1.757.525 1.783 0 2.728-.918.944-.944.944-2.622m4.593 5.507V33.09h2.36l.262 1.31h.132a6 6 0 0 1 .97-.786q1.258-.786 2.832-.787 2.386 0 3.802 1.495 1.443 1.47 1.443 4.012v7.868h-2.623v-7.868q0-1.284-.917-2.202-.892-.945-2.229-.944-1.443 0-2.439.944-.97.917-.971 2.202v7.868zm23.082-4.59h2.623a6.4 6.4 0 0 1-.604 1.6 6.7 6.7 0 0 1-1.101 1.547q-.683.76-1.809 1.233-1.128.471-2.518.472-2.859 0-4.72-1.888-1.836-1.888-1.836-4.93t1.836-4.93q1.861-1.89 4.72-1.889 2.623 0 4.117 1.495 1.495 1.469 1.915 3.226h-2.623q-.839-2.36-3.409-2.36-1.704 0-2.832 1.232-1.101 1.207-1.101 3.226c0 2.019.367 2.43 1.101 3.251q1.128 1.207 2.832 1.207 1.416 0 2.282-.76.864-.762 1.127-1.732m5.892-3.015h7.736q-.209-1.6-1.232-2.57t-2.57-.97q-1.626 0-2.622.97-.997.944-1.312 2.57m7.081 3.802h2.753q-.577 1.574-2.098 2.832-1.495 1.233-3.802 1.233-2.859 0-4.72-1.888-1.836-1.888-1.836-4.93t1.836-4.93q1.861-1.89 4.72-1.889 2.675 0 4.484 1.836t1.81 4.59q0 .235-.079.943l-.052.367h-10.097q.21 1.68 1.285 2.675 1.076.997 2.649.997 1.101 0 1.941-.525.865-.55 1.206-1.31Z"/><path fill="#5F78DC" d="M16.5 12.665H5.699V6.672h19.77l-3.886 3.887c-1.653 1.652-2.745 2.105-5.083 2.105Zm2.156 6.282L30.928 6.673h-2.07l-5.581 5.58c-2.125 2.126-3.771 2.807-6.777 2.807H5.699v5.991h7.874c2.338 0 3.43-.452 5.083-2.104M12.802 35.72 41.849 6.673h-2.072L17.423 29.028c-2.125 2.125-3.771 2.807-6.777 2.807H5.699v5.99h2.02c2.338 0 3.43-.452 5.083-2.104Zm1.694 1.694c-2.125 2.125-3.771 2.807-6.777 2.807h-2.02v5.99h39.538V6.674zm1.233-10.081 20.66-20.66h-2.072L20.35 20.64c-2.125 2.125-3.771 2.807-6.777 2.807H5.699v5.99h4.947c2.338 0 3.43-.451 5.083-2.104"/></svg>