<svg xmlns="http://www.w3.org/2000/svg" width="132" height="52" fill="none" viewBox="0 0 132 52"><path fill="#20212B" d="M71.713 18.703h2.881a8.2 8.2 0 0 1-.89 2.253 9.3 9.3 0 0 1-1.598 2.095q-.995.995-2.489 1.598-1.493.602-3.274.602-3.693 0-6.234-2.645c-2.541-2.645-2.54-4.025-2.54-6.784q0-4.139 2.54-6.784 2.541-2.646 6.234-2.646 3.248 0 5.422 1.886 2.2 1.86 2.83 4.531h-2.882q-.68-1.833-2.122-2.802-1.44-.996-3.248-.996-2.62 0-4.322 1.86-1.703 1.86-1.703 4.95 0 3.092 1.703 4.951 1.703 1.86 4.322 1.86 2.096 0 3.458-1.126 1.388-1.152 1.912-2.803m12.716 6.287-.262-1.441h-.13a4 4 0 0 1-.944.864q-1.258.839-2.986.838-2.148 0-3.431-1.126-1.284-1.126-1.284-2.933 0-2.018 1.336-3.17 1.362-1.152 4.034-1.152h3.274v-.262q0-1.284-.733-2.017-.735-.735-2.017-.734-1.257 0-1.939.577-.68.549-.812 1.257h-2.619q.105-1.729 1.546-2.882 1.44-1.178 3.824-1.178 2.54 0 3.955 1.336 1.414 1.336 1.414 3.64v8.383H84.43Zm-.393-5.501v-.524h-3.143q-1.44 0-2.174.576-.707.576-.707 1.52 0 .915.602 1.44.603.524 1.755.524 1.78 0 2.724-.917.943-.942.943-2.62Zm4.588 5.501V11.893h2.227l.261 1.178h.131q.026-.025.158-.183.157-.158.183-.21a4 4 0 0 1 .21-.183q.157-.157.261-.21t.289-.13q.183-.105.366-.131a3 3 0 0 1 .472-.079 3 3 0 0 1 .55-.052h2.357v2.357h-2.095q-2.75 0-2.75 2.724v8.016zm10.604-4.218q1.047 1.074 2.645 1.074t2.62-1.074q1.047-1.1 1.047-2.855c0-1.755-.349-2.113-1.047-2.829q-1.021-1.1-2.62-1.1-1.598 0-2.645 1.1-1.022 1.075-1.022 2.83t1.022 2.854m-3.248 5.003h2.62q.103.97.995 1.65.916.708 2.409.708 1.572 0 2.541-.97.995-.942.995-2.435v-2.096h-.131a8 8 0 0 1-.785.707q-.341.262-1.231.577-.89.288-2.044.288-2.488 0-4.138-1.729-1.624-1.756-1.624-4.558t1.624-4.531q1.65-1.755 4.138-1.755 2.62 0 4.06 1.702h.131l.262-1.44h2.358v12.835q0 2.62-1.624 4.19-1.624 1.572-4.532 1.572-1.52 0-2.724-.471t-1.886-1.231a6.3 6.3 0 0 1-1.021-1.52 4.4 4.4 0 0 1-.393-1.493m17.339-4.085q1.127 1.203 2.829 1.204t2.803-1.205q1.125-1.23 1.126-3.248 0-2.016-1.126-3.222-1.1-1.23-2.803-1.23c-1.703 0-2.078.41-2.829 1.23q-1.1 1.206-1.1 3.222 0 2.018 1.1 3.248Zm7.518 1.676q-1.835 1.886-4.689 1.886-2.856-.001-4.715-1.886-1.834-1.887-1.834-4.925c0-3.038.612-3.667 1.834-4.924q1.86-1.886 4.715-1.886t4.689 1.886q1.859 1.886 1.859 4.924t-1.859 4.925M59.14 46.157V35.548h-2.096V33.06h2.096v-2.358q0-1.178.786-1.964.785-.786 1.964-.786h2.62v2.357h-1.965q-.786 0-.786.786v1.965h2.75v2.488h-2.75v10.609zm6.416-5.239V33.06h2.62v7.858q0 1.284.89 2.226.916.917 2.253.917 1.44 0 2.41-.917.995-.942.995-2.226V33.06h2.62v13.097h-2.358l-.262-1.31h-.131a6 6 0 0 1-.97.786q-1.256.786-2.828.786-2.385 0-3.824-1.467-1.415-1.494-1.415-4.034m15.849-2.358h7.728q-.21-1.597-1.231-2.566-1.023-.97-2.567-.97-1.624 0-2.62.97-.995.942-1.31 2.566m7.073 3.799h2.75q-.576 1.57-2.095 2.828-1.494 1.232-3.798 1.232-2.855 0-4.715-1.886-1.834-1.887-1.834-4.925c0-3.038.611-3.667 1.834-4.924q1.86-1.886 4.715-1.886 2.67 0 4.479 1.834 1.807 1.833 1.807 4.583 0 .236-.079.943l-.052.367H81.405q.21 1.677 1.284 2.672t2.646.995q1.1 0 1.938-.524.864-.55 1.205-1.31Zm4.722 3.798V27.82h2.62v18.336z"/><path fill="#FFA041" d="M16.7 12.593H5.902v-5.99h19.764l-3.884 3.886c-1.652 1.652-2.744 2.104-5.082 2.104m2.156 6.28 12.269-12.27h-2.07l-5.58 5.58c-2.124 2.124-3.77 2.806-6.775 2.806H5.902v5.989h7.872c2.337 0 3.43-.452 5.082-2.104Zm-5.853 16.77 29.04-29.04h-2.071l-22.349 22.35c-2.124 2.124-3.77 2.805-6.775 2.805H5.902v5.99h2.02c2.337 0 3.429-.452 5.081-2.104Zm1.694 1.694c-2.125 2.124-3.77 2.806-6.775 2.806h-2.02v5.99H45.43V6.602zm1.232-10.078L36.584 6.604h-2.071L20.549 20.567c-2.124 2.125-3.77 2.806-6.775 2.806H5.902v5.99h4.946c2.337 0 3.43-.452 5.081-2.104"/></svg>