<svg xmlns="http://www.w3.org/2000/svg" width="40" height="40" fill="none" viewBox="0 0 40 40"><path stroke="#000" stroke-width="2.16667" d="M7.219 7.706v28.352c0 .184.149.333.333.333h24.889a.333.333 0 0 0 .333-.333V3.94a.333.333 0 0 0-.333-.333h-9.138c-.1 0-.194.045-.257.122l-2.887 3.523a.33.33 0 0 1-.258.122H7.552a.333.333 0 0 0-.333.333Z"/><path fill="#000" d="M11.458 24.424a.333.333 0 0 1-.333-.333v-6.333c0-.184.15-.334.333-.334h2.917q1.02 0 1.66.67t.64 1.78c0 1.11-.213 1.334-.64 1.78q-.64.67-1.66.67h-1.317a.333.333 0 0 0-.333.334v1.433c0 .184-.15.333-.333.333zm1.267-3.983c0 .184.15.333.333.333h1.217q.35 0 .57-.24.23-.249.23-.66 0-.41-.23-.65a.72.72 0 0 0-.57-.25h-1.217a.333.333 0 0 0-.333.334zm5.135 3.983a.333.333 0 0 1-.333-.333v-6.333c0-.184.149-.334.333-.334h2.267q1.43 0 2.41 1.01.99 1 .99 2.49t-.99 2.5q-.98 1-2.41 1zm1.267-1.883c0 .184.149.333.333.333h.667q.76 0 1.28-.55t.52-1.4-.52-1.4a1.7 1.7 0 0 0-1.28-.55h-.667a.333.333 0 0 0-.333.334zm5.633 1.883a.333.333 0 0 1-.334-.333v-6.333c0-.184.15-.334.334-.334h4.083c.184 0 .333.15.333.334v.783c0 .184-.15.333-.333.333H26.36a.333.333 0 0 0-.334.334v.733c0 .184.15.333.334.333h2.233c.184 0 .333.15.333.334v.733c0 .184-.15.333-.333.333H26.36a.333.333 0 0 0-.334.334v2.083c0 .184-.15.333-.333.333h-.934Z"/></svg>