<svg xmlns="http://www.w3.org/2000/svg" width="423" height="423" fill="none" viewBox="0 0 423 423"><path stroke="#944B96" stroke-width="61.5273" d="M392.236 211.5a180.73 180.73 0 0 1-92.233 157.584"/><path stroke="#00A6E2" stroke-width="61.5273" d="M291.927 373.355a180.74 180.74 0 0 1-148.956 5.386"/><path stroke="#EA6024" stroke-width="61.5273" d="M134.026 374.789a180.74 180.74 0 0 1-68.268-56.402"/><path stroke="#5F78DC" stroke-width="61.5273" d="M59.984 310.033a180.74 180.74 0 0 1-26.369-130.511"/><path stroke="#FFA041" stroke-width="61.5273" d="M35.865 168.861a180.735 180.735 0 0 1 157.058-137.14"/><path stroke="#20AD83" stroke-width="61.5273" d="M202.161 31.005A180.74 180.74 0 0 1 374.682 133.8a180.7 180.7 0 0 1 17.313 68.361"/></svg>