<svg xmlns="http://www.w3.org/2000/svg" width="16" height="16" fill="none" viewBox="0 0 16 16"><path fill="#20AD83" d="M4.37 2.424H0V0h8L6.428 1.573c-.67.668-1.111.851-2.057.851Zm.873 2.543L10.21 0h-.84L7.113 2.258c-.86.86-1.526 1.136-2.742 1.136H0v2.424h3.186c.947 0 1.388-.183 2.057-.851m-2.369 6.787L14.63 0h-.838L4.743 9.046c-.86.86-1.526 1.136-2.742 1.136H0v2.424h.818c.946 0 1.388-.183 2.056-.852m.686.686c-.86.86-1.526 1.136-2.742 1.136H0V16h16V0zm.499-4.08L12.419 0h-.838L5.929 5.652c-.86.86-1.526 1.136-2.743 1.136H0v2.424h2.002c.946 0 1.388-.183 2.057-.852"/></svg>