<svg xmlns="http://www.w3.org/2000/svg" width="24" height="24" fill="none" viewBox="0 0 24 24"><path fill="#D6001C" d="M12 24c6.628 0 12-5.372 12-12S18.628 0 12 0 0 5.372 0 12s5.372 12 12 12"/><path fill="#FEFEFE" d="M6.731 6.712v4.082q.934-1.113 2.23-1.114.667 0 1.202.253.536.252.807.644.272.394.372.87.099.474.099 1.477v4.364H9.51v-3.93q.001-1.17-.109-1.485a.96.96 0 0 0-.387-.5q-.279-.187-.697-.187-.481 0-.857.239-.381.24-.554.718-.177.48-.175 1.418l-.002 3.727H4.801V6.712zm7.604 0v4.082q.933-1.113 2.23-1.114.665 0 1.203.253.535.252.805.644c.181.262.308.558.371.87q.1.474.1 1.477v4.364h-1.93v-3.93q0-1.17-.11-1.485a.96.96 0 0 0-.388-.5q-.277-.187-.697-.187-.48 0-.856.239-.378.24-.553.718-.175.48-.175 1.418v3.727h-1.929V6.712z"/></svg>