<svg xmlns="http://www.w3.org/2000/svg" width="157" height="32" fill="none" viewBox="0 0 157 32"><path fill="#20212B" d="M36.9 18.416h2.556a7.2 7.2 0 0 1-.79 1.984 8.2 8.2 0 0 1-1.417 1.846q-.883.877-2.208 1.408-1.324.53-2.905.53-3.277 0-5.53-2.33t-2.254-5.977q-.001-3.645 2.254-5.976 2.253-2.33 5.53-2.33 2.882 0 4.81 1.66 1.953 1.64 2.51 3.993H36.9q-.604-1.615-1.882-2.47-1.278-.876-2.882-.876-2.323 0-3.834 1.638-1.51 1.638-1.51 4.361 0 2.724 1.51 4.362t3.834 1.638q1.86 0 3.068-.992 1.231-1.015 1.696-2.47Zm11.706 5.538-.232-1.27h-.116a3.6 3.6 0 0 1-.837.762q-1.115.738-2.649.738-1.905 0-3.044-.992t-1.139-2.584q0-1.777 1.185-2.792 1.209-1.016 3.579-1.016h2.905v-.23q0-1.13-.65-1.777-.652-.646-1.79-.646-1.116 0-1.72.507-.605.485-.72 1.108h-2.324q.093-1.523 1.371-2.538 1.278-1.04 3.393-1.039 2.254 0 3.509 1.177t1.255 3.208v7.384zm-.348-4.846v-.462h-2.789q-1.278 0-1.929.508-.627.508-.627 1.338 0 .808.535 1.27.534.46 1.556.461 1.581 0 2.417-.807.837-.83.837-2.308m4.495 4.846V12.416h1.975l.232 1.038h.117a4 4 0 0 0 .139-.161q.14-.138.163-.185.046-.045.186-.161a1 1 0 0 1 .232-.185q.093-.045.256-.115a.9.9 0 0 1 .325-.116q.186-.045.418-.069.233-.045.488-.046h2.092v2.077h-1.86q-2.44 0-2.44 2.4v7.06h-2.323Zm9.832-3.715q.93.945 2.347.946 1.418 0 2.324-.946.93-.97.93-2.516 0-1.545-.93-2.492-.908-.969-2.324-.969-1.418 0-2.347.97-.907.945-.907 2.491t.907 2.516m-2.882 4.407h2.324q.093.854.883 1.454.813.623 2.138.623 1.394 0 2.254-.854.883-.831.883-2.146v-1.846h-.116q-.396.393-.697.623-.303.23-1.092.508-.79.254-1.813.254-2.208 0-3.672-1.524-1.44-1.545-1.44-4.015 0-2.468 1.44-3.992 1.464-1.545 3.672-1.546 2.325 0 3.602 1.5h.116l.233-1.269h2.091v11.307q0 2.308-1.44 3.692-1.441 1.385-4.021 1.385-1.348 0-2.417-.416-1.068-.415-1.673-1.084a5.5 5.5 0 0 1-.906-1.339 3.9 3.9 0 0 1-.349-1.315m15.807-3.6q1 1.062 2.51 1.062c1.51 0 1.836-.354 2.487-1.062q1-1.085 1-2.861t-1-2.838q-.976-1.085-2.487-1.085-1.51 0-2.51 1.085-.975 1.06-.976 2.838 0 1.776.977 2.861Zm6.67 1.477q-1.627 1.662-4.16 1.662-2.532 0-4.183-1.662-1.626-1.661-1.626-4.338t1.626-4.338q1.65-1.662 4.183-1.662t4.16 1.662q1.65 1.661 1.65 4.338t-1.65 4.338m3.354 1.431V12.416h2.092l.232 1.154h.116a5.3 5.3 0 0 1 .86-.692q1.116-.693 2.51-.693 2.115 0 3.37 1.316 1.278 1.292 1.278 3.53v6.923h-2.324V17.03q0-1.131-.814-1.938-.79-.83-1.975-.83-1.278 0-2.16.83-.86.807-.86 1.938v6.923zm15.349-2.908q.999 1.062 2.509 1.062c1.51 0 1.836-.354 2.487-1.062q.999-1.085.999-2.861t-.999-2.838q-.977-1.085-2.487-1.085t-2.509 1.085q-.977 1.06-.977 2.838 0 1.776.977 2.861m6.669 1.477q-1.626 1.662-4.16 1.662-2.532 0-4.183-1.662-1.626-1.661-1.626-4.338t1.626-4.338q1.65-1.662 4.183-1.662t4.16 1.662q1.65 1.661 1.65 4.338t-1.65 4.338m3.354 1.431V12.416h2.092l.232 1.154h.116q.325-.37.814-.692 1.068-.693 2.207-.693 1.441 0 2.44.808.442.415.698.808h.116q.301-.393.906-.808 1.302-.808 2.928-.808 1.813 0 2.998 1.27 1.185 1.246 1.185 3.207v7.292h-2.324v-7.269q0-1.107-.65-1.754-.628-.669-1.674-.669-1.068 0-1.812.692-.744.693-.744 1.731v7.269h-2.324v-7.269q0-1.107-.65-1.754-.628-.669-1.674-.669-1.068 0-1.812.692-.744.693-.744 1.731v7.269zm18.893 0V12.416h2.324v11.538zm-.116-13.73V7.801h2.556v2.423zm12.984 9.692h2.324a5.6 5.6 0 0 1-.535 1.407 5.8 5.8 0 0 1-.976 1.362q-.603.669-1.603 1.084t-2.231.416q-2.533 0-4.183-1.662-1.626-1.661-1.626-4.338t1.626-4.338q1.65-1.662 4.183-1.662 2.323 0 3.649 1.316 1.324 1.292 1.696 2.838h-2.324q-.744-2.077-3.021-2.077-1.51 0-2.51 1.085-.976 1.06-.976 2.838 0 1.776.976 2.861 1 1.062 2.51 1.062 1.255 0 2.022-.67.767-.669.999-1.522m11.456 4.038-.233-1.27h-.116a3.6 3.6 0 0 1-.837.762q-1.114.738-2.649.738-1.905 0-3.044-.992t-1.139-2.584q0-1.777 1.186-2.792 1.208-1.016 3.578-1.016h2.905v-.23q0-1.13-.651-1.777-.65-.646-1.789-.646-1.116 0-1.72.507-.604.485-.72 1.108h-2.324q.093-1.523 1.371-2.538 1.278-1.04 3.393-1.039 2.254 0 3.509 1.177t1.255 3.208v7.384zm-.349-4.846v-.462h-2.789q-1.278 0-1.928.508-.628.508-.628 1.338 0 .808.535 1.27.534.46 1.557.461 1.58 0 2.416-.807.837-.83.837-2.308M4.605 10.125H0V7.57h8.43L6.772 9.227c-.705.705-1.17.898-2.168.898Zm.92 2.678 5.232-5.233h-.883l-2.38 2.38c-.905.906-1.607 1.196-2.889 1.196H0v2.555h3.357c.997 0 1.463-.193 2.168-.898m-2.496 7.152L15.414 7.57h-.884L5 17.102c-.906.906-1.608 1.197-2.89 1.197H0v2.554h.861c.997 0 1.463-.193 2.168-.898m.722.723c-.906.906-1.608 1.197-2.89 1.197H0v2.554h16.858V7.57zm.526-4.299 8.808-8.809h-.883l-5.955 5.956c-.906.906-1.608 1.196-2.89 1.196H0v2.555h2.11c.996 0 1.462-.193 2.167-.898"/></svg>