<svg xmlns="http://www.w3.org/2000/svg" width="32" height="32" fill="none" viewBox="0 0 32 32"><path fill="#ED1B34" fill-rule="evenodd" d="M4 4h24v24H4zm18.945 3.197c.21-.44.629-.801 1.18-.801.723-.039 1.366.514 1.421 1.338 0 .113-.052.515-.092.61l-2.795 4.538c-.284.48-.226.843-.111 1.246l4.215 10.793H9.456c-1.54 0-2.74-1.245-2.74-2.797l-.055-14.28c.058-1.893 2.7-1.893 2.795-.055v13.455c0 .424.377.88.833.88h12.694l-3.268-7.806c-.113-.25-.152-.518-.152-.825 0-.343.152-.86.36-1.319zm-7.029.592c0-.919.677-1.384 1.356-1.389.68-.005 1.36.451 1.36 1.39v9.704c0 2.22-1.655 3.695-3.687 3.695-1.977 0-3.628-1.476-3.628-3.695V7.789c0-1.838 2.716-1.838 2.716 0v9.63c0 1.285 1.883 1.398 1.883 0z" clip-rule="evenodd"/></svg>