<svg xmlns="http://www.w3.org/2000/svg" width="340" height="60" fill="none" viewBox="0 0 340 60"><path fill="#fff" d="M79.98 32.981h5.54q-.503 2.201-1.712 4.302-1.159 2.1-3.073 4-1.913 1.902-4.784 3.052t-6.296 1.15q-7.102 0-11.988-5.051T52.781 27.48t4.886-12.954q4.885-5.051 11.988-5.051 6.245 0 10.426 3.6 4.23 3.552 5.44 8.653H79.98q-1.31-3.501-4.08-5.351-2.77-1.9-6.245-1.9-5.037 0-8.311 3.55T58.07 27.48q0 5.901 3.274 9.453 3.274 3.55 8.31 3.55 4.03 0 6.65-2.15 2.668-2.2 3.676-5.352m25.372 12.004-.503-2.75h-.252a7.8 7.8 0 0 1-1.813 1.65q-2.418 1.6-5.742 1.6-4.13 0-6.599-2.15-2.468-2.152-2.468-5.602 0-3.852 2.57-6.052 2.617-2.2 7.756-2.2h6.296v-.5q0-2.452-1.411-3.852-1.41-1.4-3.878-1.4-2.418 0-3.727 1.1-1.31 1.05-1.562 2.4h-5.036q.201-3.3 2.971-5.5 2.771-2.252 7.354-2.252 4.885 0 7.606 2.551 2.72 2.55 2.72 6.952v16.005zm-.755-10.503v-1h-6.044q-2.77 0-4.18 1.1-1.36 1.1-1.36 2.9 0 1.752 1.158 2.752t3.374 1q3.426 0 5.239-1.75 1.813-1.801 1.813-5.002m9.742 10.503V19.978h4.282l.503 2.25h.252q.05-.05.302-.35.302-.3.353-.4.1-.1.403-.35.302-.3.503-.4.202-.1.555-.25.353-.2.705-.25.403-.1.906-.15.504-.1 1.058-.1h4.533v4.501h-4.029q-5.289 0-5.289 5.201v15.305zm21.31-8.052q2.015 2.05 5.088 2.05t5.036-2.05q2.015-2.1 2.015-5.452c0-3.352-.671-4.035-2.015-5.402q-1.964-2.1-5.036-2.1-3.073 0-5.088 2.1-1.964 2.05-1.964 5.402c0 3.352.655 4.051 1.964 5.452m-6.245 9.552h5.037q.201 1.85 1.914 3.151 1.763 1.35 4.633 1.35 3.023 0 4.886-1.85 1.914-1.8 1.914-4.651v-4.001h-.252a16 16 0 0 1-1.511 1.35q-.654.5-2.367 1.1-1.713.55-3.929.55-4.784 0-7.958-3.3-3.123-3.351-3.123-8.703t3.123-8.653q3.174-3.35 7.958-3.35 5.038 0 7.807 3.25h.252l.504-2.75h4.533v24.507q0 5.002-3.123 8.002t-8.714 3q-2.92 0-5.238-.9-2.316-.9-3.626-2.35-1.26-1.4-1.965-2.9-.654-1.452-.755-2.852m34.262-7.802q2.166 2.3 5.439 2.3 3.275 0 5.39-2.3 2.166-2.35 2.166-6.202 0-3.85-2.166-6.152-2.115-2.35-5.39-2.35-3.273 0-5.439 2.35-2.116 2.301-2.116 6.152t2.116 6.202m14.455 3.201q-3.525 3.6-9.016 3.601t-9.066-3.601q-3.526-3.6-3.526-9.403 0-5.802 3.526-9.402 3.576-3.602 9.066-3.602t9.016 3.602q3.576 3.6 3.576 9.402t-3.576 9.403m7.271 3.101V19.978h4.533l.504 2.5h.251a11.5 11.5 0 0 1 1.864-1.5q2.418-1.5 5.44-1.5 4.584 0 7.303 2.85 2.77 2.8 2.77 7.653v15.004h-5.036V29.98q0-2.451-1.763-4.202-1.713-1.8-4.282-1.8-2.77 0-4.684 1.8-1.863 1.75-1.863 4.202v15.004h-5.037Zm33.266-6.302q2.166 2.3 5.44 2.3t5.389-2.3q2.166-2.35 2.166-6.202 0-3.85-2.166-6.152-2.115-2.35-5.389-2.35t-5.44 2.35q-2.115 2.301-2.115 6.152t2.115 6.202m14.456 3.201q-3.526 3.6-9.016 3.601c-5.49.001-6.682-1.2-9.066-3.601q-3.526-3.6-3.526-9.403 0-5.802 3.526-9.402 3.576-3.602 9.066-3.602t9.016 3.602q3.576 3.6 3.576 9.402t-3.576 9.403m7.27 3.101V19.978h4.533l.504 2.5h.252q.705-.8 1.763-1.5 2.316-1.5 4.785-1.5 3.123 0 5.288 1.75.957.9 1.511 1.75h.252q.656-.85 1.965-1.75 2.82-1.75 6.346-1.75 3.929 0 6.498 2.75 2.568 2.7 2.568 6.952v15.805h-5.037V29.23q0-2.4-1.41-3.8-1.36-1.452-3.626-1.451-2.317 0-3.929 1.5t-1.612 3.751v15.755h-5.037V29.23q0-2.4-1.41-3.8-1.36-1.452-3.626-1.451-2.318 0-3.929 1.5-1.612 1.5-1.612 3.751v15.755zm40.949 0V19.978h5.037v25.007zm-.252-29.759V9.975h5.541v5.251zm28.143 21.006h5.037a12 12 0 0 1-1.159 3.051q-.755 1.5-2.115 2.951-1.31 1.45-3.475 2.35t-4.836.901q-5.49 0-9.066-3.601-3.526-3.6-3.526-9.403 0-5.802 3.526-9.402 3.576-3.602 9.066-3.602 5.037 0 7.908 2.851 2.871 2.8 3.677 6.152h-5.037q-1.611-4.5-6.548-4.501-3.273 0-5.44 2.35-2.115 2.301-2.115 6.152t2.115 6.202q2.167 2.3 5.44 2.3 2.72 0 4.382-1.45t2.166-3.3Zm24.829 8.753-.503-2.75h-.252a7.8 7.8 0 0 1-1.813 1.65q-2.418 1.6-5.742 1.6-4.13 0-6.599-2.15-2.468-2.152-2.468-5.602 0-3.852 2.569-6.052 2.62-2.2 7.757-2.2h6.296v-.5q0-2.452-1.41-3.852t-3.879-1.4q-2.418 0-3.727 1.1-1.31 1.05-1.562 2.4h-5.036q.202-3.3 2.971-5.5 2.771-2.252 7.354-2.252 4.885 0 7.606 2.551 2.72 2.55 2.72 6.952v16.005zm-.755-10.503v-1h-6.044q-2.77 0-4.181 1.1-1.36 1.1-1.36 2.9 0 1.752 1.159 2.752 1.158 1 3.374 1 3.426 0 5.239-1.75 1.813-1.801 1.813-5.002M9.982 14.873H0V9.387h18.27l-3.59 3.558c-1.528 1.514-2.537 1.928-4.698 1.928m1.992 5.752L23.316 9.387h-1.914l-5.157 5.11c-1.964 1.945-3.485 2.57-6.263 2.57H0v5.485l7.277.001c2.16 0 3.17-.414 4.697-1.928m-5.41 15.36L33.408 9.387h-1.914l-20.66 20.47c-1.963 1.945-3.484 2.57-6.262 2.57H0v5.486h1.867c2.16 0 3.17-.414 4.697-1.928m1.566 1.552c-1.964 1.945-3.485 2.57-6.263 2.57H0v5.486h36.54V9.386zm1.14-9.232L28.361 9.387h-1.914L13.54 22.177c-1.964 1.945-3.485 2.57-6.263 2.57H0v5.486h4.572c2.16 0 3.17-.414 4.697-1.928Z"/></svg>