<svg xmlns="http://www.w3.org/2000/svg" width="40" height="40" fill="none" viewBox="0 0 40 40"><path fill="#fff" d="M20.038 20.526c4.45 0 8.076-3.627 8.076-8.075 0-4.45-3.627-8.076-8.076-8.076-4.497 0-8.123 3.627-8.123 8.076 0 4.448 3.626 8.075 8.123 8.075m0-11.412a3.343 3.343 0 0 1 3.337 3.337 3.343 3.343 0 0 1-3.337 3.336 3.343 3.343 0 0 1-3.336-3.336c-.049-1.838 1.45-3.337 3.336-3.337m3.239 18.036c1.645-.386 3.24-1.015 4.69-1.934 1.113-.677 1.452-2.176.726-3.288-.677-1.112-2.176-1.45-3.288-.725-3.288 2.079-7.592 2.079-10.88 0-1.112-.677-2.563-.387-3.288.725-.629 1.112-.29 2.563.822 3.24 1.45.919 3.046 1.547 4.69 1.934L12.253 31.6a2.364 2.364 0 0 0 0 3.337c.484.483 1.064.677 1.693.677.628 0 1.209-.242 1.692-.677l4.449-4.449 4.449 4.449a2.364 2.364 0 0 0 3.336 0 2.364 2.364 0 0 0 0-3.337l-4.593-4.448Z"/></svg>